M48
; DRILL file {KiCad (6.0.2)} date Sun May  1 20:51:27 2022
; FORMAT={-:-/ absolute / metric / decimal}
; #@! TF.CreationDate,2022-05-01T20:51:27+10:00
; #@! TF.GenerationSoftware,Kicad,Pcbnew,(6.0.2)
; #@! TF.FileFunction,Plated,1,2,PTH
FMAT,2
METRIC
; #@! TA.AperFunction,Plated,PTH,ViaDrill
T1C0.300
; #@! TA.AperFunction,Plated,PTH,ComponentDrill
T2C0.762
%
G90
G05
T1
X68.995Y-78.819
X69.009Y-43.888
X69.385Y-81.284
X84.421Y-74.739
X85.28Y-41.18
X85.65Y-43.8
X86.526Y-79.72
X87.23Y-41.24
X88.03Y-51.5
X88.82Y-58.16
X88.94Y-45.03
X89.614Y-70.786
X89.65Y-66.89
X89.819Y-56.626
X89.9Y-69.53
X90.08Y-47.73
X90.47Y-64.37
X91.587Y-53.762
X92.04Y-59.121
X92.389Y-51.889
X92.91Y-62.25
X93.294Y-76.885
X93.927Y-52.006
X94.019Y-65.384
X94.058Y-67.956
X94.111Y-76.99
X94.841Y-68.118
X95.195Y-65.39
X95.336Y-47.549
X95.482Y-78.5
X95.723Y-54.935
X95.903Y-55.824
X96.013Y-57.371
X96.11Y-64.4
X96.307Y-51.196
X96.366Y-47.435
X97.536Y-51.427
X97.934Y-55.435
X99.18Y-69.59
X99.784Y-61.227
X100.393Y-53.41
X100.404Y-54.211
X100.991Y-40.479
X101.119Y-69.205
X101.24Y-54.259
X101.565Y-62.693
X103.075Y-62.503
X103.198Y-60.938
X103.414Y-56.515
X103.44Y-68.77
X103.985Y-58.495
X104.008Y-52.731
X108.859Y-53.532
X108.927Y-54.346
X109.614Y-55.599
X109.851Y-48.024
X110.51Y-58.007
X110.655Y-57.207
X110.728Y-61.487
X111.328Y-57.942
X112.554Y-59.377
X113.068Y-67.0
X115.58Y-78.466
X116.153Y-68.069
X116.154Y-65.688
X119.986Y-56.324
T2
X121.11Y-36.872
X121.11Y-39.413
X121.11Y-41.953
X121.11Y-44.492
X121.11Y-47.032
X121.11Y-49.572
X121.11Y-52.112
X121.11Y-54.652
X121.11Y-57.192
X121.11Y-59.732
X121.11Y-62.272
X121.11Y-64.812
X121.11Y-67.352
X121.11Y-69.892
X121.11Y-72.432
X121.11Y-74.972
X121.11Y-77.513
X121.11Y-80.052
X121.11Y-82.593
X146.51Y-36.872
X146.51Y-39.413
X146.51Y-41.953
X146.51Y-44.492
X146.51Y-47.032
X146.51Y-49.572
X146.51Y-52.112
X146.51Y-54.652
X146.51Y-57.192
X146.51Y-59.732
X146.51Y-62.272
X146.51Y-64.812
X146.51Y-67.352
X146.51Y-69.892
X146.51Y-72.432
X146.51Y-74.972
X146.51Y-77.513
X146.51Y-80.052
X146.51Y-82.593
T0
M30
