%TF.GenerationSoftware,KiCad,Pcbnew,(6.0.2)*%
%TF.CreationDate,2022-05-01T20:43:16+10:00*%
%TF.ProjectId,brother-esp32,62726f74-6865-4722-9d65-737033322e6b,rev?*%
%TF.SameCoordinates,Original*%
%TF.FileFunction,Soldermask,Top*%
%TF.FilePolarity,Negative*%
%FSLAX46Y46*%
G04 Gerber Fmt 4.6, Leading zero omitted, Abs format (unit mm)*
G04 Created by KiCad (PCBNEW (6.0.2)) date 2022-05-01 20:43:16*
%MOMM*%
%LPD*%
G01*
G04 APERTURE LIST*
G04 Aperture macros list*
%AMRoundRect*
0 Rectangle with rounded corners*
0 $1 Rounding radius*
0 $2 $3 $4 $5 $6 $7 $8 $9 X,Y pos of 4 corners*
0 Add a 4 corners polygon primitive as box body*
4,1,4,$2,$3,$4,$5,$6,$7,$8,$9,$2,$3,0*
0 Add four circle primitives for the rounded corners*
1,1,$1+$1,$2,$3*
1,1,$1+$1,$4,$5*
1,1,$1+$1,$6,$7*
1,1,$1+$1,$8,$9*
0 Add four rect primitives between the rounded corners*
20,1,$1+$1,$2,$3,$4,$5,0*
20,1,$1+$1,$4,$5,$6,$7,0*
20,1,$1+$1,$6,$7,$8,$9,0*
20,1,$1+$1,$8,$9,$2,$3,0*%
%AMFreePoly0*
4,1,22,0.500000,-0.750000,0.000000,-0.750000,0.000000,-0.745033,-0.079941,-0.743568,-0.215256,-0.701293,-0.333266,-0.622738,-0.424486,-0.514219,-0.481581,-0.384460,-0.499164,-0.250000,-0.500000,-0.250000,-0.500000,0.250000,-0.499164,0.250000,-0.499963,0.256109,-0.478152,0.396186,-0.417904,0.524511,-0.324060,0.630769,-0.204165,0.706417,-0.067858,0.745374,0.000000,0.744959,0.000000,0.750000,
0.500000,0.750000,0.500000,-0.750000,0.500000,-0.750000,$1*%
%AMFreePoly1*
4,1,20,0.000000,0.744959,0.073905,0.744508,0.209726,0.703889,0.328688,0.626782,0.421226,0.519385,0.479903,0.390333,0.500000,0.250000,0.500000,-0.250000,0.499851,-0.262216,0.476331,-0.402017,0.414519,-0.529596,0.319384,-0.634700,0.198574,-0.708877,0.061801,-0.746166,0.000000,-0.745033,0.000000,-0.750000,-0.500000,-0.750000,-0.500000,0.750000,0.000000,0.750000,0.000000,0.744959,
0.000000,0.744959,$1*%
G04 Aperture macros list end*
%ADD10R,3.400000X0.600000*%
%ADD11RoundRect,0.011200X0.128800X-0.758800X0.128800X0.758800X-0.128800X0.758800X-0.128800X-0.758800X0*%
%ADD12RoundRect,0.237500X-0.237500X0.250000X-0.237500X-0.250000X0.237500X-0.250000X0.237500X0.250000X0*%
%ADD13RoundRect,0.042000X0.908000X0.258000X-0.908000X0.258000X-0.908000X-0.258000X0.908000X-0.258000X0*%
%ADD14R,1.000000X1.000000*%
%ADD15RoundRect,0.237500X0.237500X-0.300000X0.237500X0.300000X-0.237500X0.300000X-0.237500X-0.300000X0*%
%ADD16RoundRect,0.237500X-0.250000X-0.237500X0.250000X-0.237500X0.250000X0.237500X-0.250000X0.237500X0*%
%ADD17C,1.524000*%
%ADD18R,1.000000X1.500000*%
%ADD19FreePoly0,0.000000*%
%ADD20FreePoly1,0.000000*%
%ADD21RoundRect,0.237500X0.237500X-0.250000X0.237500X0.250000X-0.237500X0.250000X-0.237500X-0.250000X0*%
G04 APERTURE END LIST*
D10*
%TO.C,J1*%
X66790000Y-41990000D03*
X66790000Y-42985375D03*
X66790000Y-43980750D03*
X66790000Y-44976125D03*
X66790000Y-45971500D03*
X66790000Y-46966875D03*
X66790000Y-47962250D03*
X66790000Y-48957625D03*
X66790000Y-49953000D03*
X66790000Y-50948375D03*
X66790000Y-51943750D03*
X66790000Y-52939125D03*
X66790000Y-53934500D03*
X66790000Y-54929875D03*
X66790000Y-55925250D03*
X66790000Y-56920625D03*
X66790000Y-57916000D03*
X66790000Y-58911375D03*
X66790000Y-59906750D03*
X66790000Y-60902125D03*
X66790000Y-61897500D03*
X66790000Y-62892875D03*
X66790000Y-63888250D03*
X66790000Y-64883625D03*
X66790000Y-65879000D03*
X66790000Y-66874375D03*
X66790000Y-67869750D03*
X66790000Y-68865125D03*
X66790000Y-69860500D03*
X66790000Y-70855875D03*
X66790000Y-71851250D03*
X66790000Y-72846625D03*
X66790000Y-73842000D03*
X66790000Y-74837375D03*
X66790000Y-75832750D03*
X66790000Y-76828125D03*
X66790000Y-77823500D03*
X66790000Y-78818875D03*
X66790000Y-79814250D03*
X66790000Y-80809625D03*
%TD*%
D11*
%TO.C,U1*%
X92250000Y-66690000D03*
X92750000Y-66690000D03*
X93250000Y-66690000D03*
X93750000Y-66690000D03*
X94250000Y-66690000D03*
X94750000Y-66690000D03*
X95250000Y-66690000D03*
X95750000Y-66690000D03*
X96250000Y-66690000D03*
X96750000Y-66690000D03*
X97250000Y-66690000D03*
X97750000Y-66690000D03*
X98250000Y-66690000D03*
X98750000Y-66690000D03*
X99250000Y-66690000D03*
X99750000Y-66690000D03*
X99750000Y-53310000D03*
X99250000Y-53310000D03*
X98750000Y-53310000D03*
X98250000Y-53310000D03*
X97750000Y-53310000D03*
X97250000Y-53310000D03*
X96750000Y-53310000D03*
X96250000Y-53310000D03*
X95750000Y-53310000D03*
X95250000Y-53310000D03*
X94750000Y-53310000D03*
X94250000Y-53310000D03*
X93750000Y-53310000D03*
X93250000Y-53310000D03*
X92750000Y-53310000D03*
X92250000Y-53310000D03*
%TD*%
D12*
%TO.C,R35*%
X110900000Y-48275000D03*
X110900000Y-50100000D03*
%TD*%
D13*
%TO.C,U3*%
X114690000Y-69040000D03*
X114690000Y-67770000D03*
X114690000Y-66500000D03*
X114690000Y-65230000D03*
X114690000Y-63960000D03*
X114690000Y-62690000D03*
X114690000Y-61420000D03*
X114690000Y-60150000D03*
X114690000Y-58880000D03*
X114690000Y-57610000D03*
X114690000Y-56340000D03*
X114690000Y-55070000D03*
X114690000Y-53800000D03*
X114690000Y-52530000D03*
X105480000Y-52530000D03*
X105480000Y-53800000D03*
X105480000Y-55070000D03*
X105480000Y-56340000D03*
X105480000Y-57610000D03*
X105480000Y-58880000D03*
X105480000Y-60150000D03*
X105480000Y-61420000D03*
X105480000Y-62690000D03*
X105480000Y-63960000D03*
X105480000Y-65230000D03*
X105480000Y-66500000D03*
X105480000Y-67770000D03*
X105480000Y-69040000D03*
%TD*%
D14*
%TO.C,D6*%
X76750000Y-55357100D03*
X79250000Y-55357100D03*
%TD*%
%TO.C,D22*%
X71925000Y-56627600D03*
X74425000Y-56627600D03*
%TD*%
%TO.C,D25*%
X74425000Y-64327600D03*
X71925000Y-64327600D03*
%TD*%
D15*
%TO.C,C2*%
X108830000Y-50050000D03*
X108830000Y-48325000D03*
%TD*%
D14*
%TO.C,D24*%
X74550000Y-61760900D03*
X72050000Y-61760900D03*
%TD*%
%TO.C,D1*%
X76750000Y-42500000D03*
X79250000Y-42500000D03*
%TD*%
D16*
%TO.C,R1*%
X81587500Y-41230000D03*
X83412500Y-41230000D03*
%TD*%
D14*
%TO.C,D20*%
X74425000Y-51494300D03*
X71925000Y-51494300D03*
%TD*%
%TO.C,D26*%
X74425000Y-66894300D03*
X71925000Y-66894300D03*
%TD*%
%TO.C,D30*%
X79250000Y-75928600D03*
X76750000Y-75928600D03*
%TD*%
D15*
%TO.C,C1*%
X96340000Y-39752500D03*
X96340000Y-38027500D03*
%TD*%
D14*
%TO.C,D7*%
X76750000Y-57928600D03*
X79250000Y-57928600D03*
%TD*%
%TO.C,D29*%
X74425000Y-74594300D03*
X71925000Y-74594300D03*
%TD*%
%TO.C,D10*%
X79250000Y-65642900D03*
X76750000Y-65642900D03*
%TD*%
D16*
%TO.C,R6*%
X85610000Y-47642900D03*
X87435000Y-47642900D03*
%TD*%
D14*
%TO.C,D28*%
X71925000Y-72027600D03*
X74425000Y-72027600D03*
%TD*%
D16*
%TO.C,R2*%
X85610000Y-42500000D03*
X87435000Y-42500000D03*
%TD*%
%TO.C,R15*%
X81587500Y-59192000D03*
X83412500Y-59192000D03*
%TD*%
%TO.C,R30*%
X85610000Y-78500000D03*
X87435000Y-78500000D03*
%TD*%
%TO.C,R28*%
X85610000Y-75928600D03*
X87435000Y-75928600D03*
%TD*%
%TO.C,R19*%
X81587500Y-64324000D03*
X83412500Y-64324000D03*
%TD*%
%TO.C,R7*%
X81587500Y-48928000D03*
X83412500Y-48928000D03*
%TD*%
%TO.C,R5*%
X81587500Y-46362000D03*
X83412500Y-46362000D03*
%TD*%
D17*
%TO.C,U2*%
X121110000Y-36872500D03*
X121110000Y-39412500D03*
X121110000Y-41952500D03*
X121110000Y-44492500D03*
X121110000Y-47032500D03*
X121110000Y-49572500D03*
X121110000Y-52112500D03*
X121110000Y-54652500D03*
X121110000Y-57192500D03*
X121110000Y-59732500D03*
X121110000Y-62272500D03*
X121110000Y-64812500D03*
X121110000Y-67352500D03*
X121110000Y-69892500D03*
X121110000Y-72432500D03*
X121110000Y-74972500D03*
X121110000Y-77512500D03*
X121110000Y-80052500D03*
X121110000Y-82592500D03*
X146510000Y-82592500D03*
X146510000Y-80052500D03*
X146510000Y-77512500D03*
X146510000Y-74972500D03*
X146510000Y-72432500D03*
X146510000Y-69892500D03*
X146510000Y-67352500D03*
X146510000Y-64812500D03*
X146510000Y-62272500D03*
X146510000Y-59732500D03*
X146510000Y-57192500D03*
X146510000Y-54652500D03*
X146510000Y-52112500D03*
X146510000Y-49572500D03*
X146510000Y-47032500D03*
X146510000Y-44492500D03*
X146510000Y-41952500D03*
X146510000Y-39412500D03*
X146510000Y-36872500D03*
%TD*%
D16*
%TO.C,R23*%
X81587500Y-69456000D03*
X83412500Y-69456000D03*
%TD*%
D14*
%TO.C,D8*%
X79250000Y-60500000D03*
X76750000Y-60500000D03*
%TD*%
D16*
%TO.C,R27*%
X81587500Y-74588000D03*
X83412500Y-74588000D03*
%TD*%
D14*
%TO.C,D18*%
X74425000Y-46360900D03*
X71925000Y-46360900D03*
%TD*%
%TO.C,D17*%
X71925000Y-43794300D03*
X74425000Y-43794300D03*
%TD*%
D16*
%TO.C,R32*%
X81587500Y-38000000D03*
X83412500Y-38000000D03*
%TD*%
%TO.C,R21*%
X81587500Y-66890000D03*
X83412500Y-66890000D03*
%TD*%
%TO.C,R22*%
X85610000Y-68214300D03*
X87435000Y-68214300D03*
%TD*%
D14*
%TO.C,D14*%
X74425000Y-77160900D03*
X71925000Y-77160900D03*
%TD*%
D18*
%TO.C,JP1*%
X101650000Y-39150000D03*
X102950000Y-39150000D03*
X104250000Y-39150000D03*
%TD*%
D16*
%TO.C,R31*%
X81587500Y-79720000D03*
X83412500Y-79720000D03*
%TD*%
D19*
%TO.C,JP2*%
X115580000Y-81980000D03*
D20*
X116880000Y-81980000D03*
%TD*%
D14*
%TO.C,D4*%
X79250000Y-50214300D03*
X76750000Y-50214300D03*
%TD*%
%TO.C,D27*%
X74425000Y-69460900D03*
X71925000Y-69460900D03*
%TD*%
%TO.C,D2*%
X79250000Y-45071400D03*
X76750000Y-45071400D03*
%TD*%
D16*
%TO.C,R25*%
X81587500Y-72022000D03*
X83412500Y-72022000D03*
%TD*%
D14*
%TO.C,D21*%
X71925000Y-54060900D03*
X74425000Y-54060900D03*
%TD*%
%TO.C,D12*%
X79250000Y-70785700D03*
X76750000Y-70785700D03*
%TD*%
D16*
%TO.C,R16*%
X85610000Y-60500000D03*
X87435000Y-60500000D03*
%TD*%
%TO.C,R24*%
X85610000Y-70785700D03*
X87435000Y-70785700D03*
%TD*%
%TO.C,R4*%
X85610000Y-45071400D03*
X87435000Y-45071400D03*
%TD*%
%TO.C,R29*%
X81587500Y-77154000D03*
X83412500Y-77154000D03*
%TD*%
D14*
%TO.C,D19*%
X74425000Y-48927600D03*
X71925000Y-48927600D03*
%TD*%
D16*
%TO.C,R11*%
X81587500Y-54060000D03*
X83412500Y-54060000D03*
%TD*%
D21*
%TO.C,R36*%
X115800000Y-47800000D03*
X115800000Y-45975000D03*
%TD*%
D16*
%TO.C,R26*%
X85610000Y-73357100D03*
X87435000Y-73357100D03*
%TD*%
D14*
%TO.C,D16*%
X74425000Y-41227600D03*
X71925000Y-41227600D03*
%TD*%
D16*
%TO.C,R17*%
X81587500Y-61758000D03*
X83412500Y-61758000D03*
%TD*%
%TO.C,R13*%
X81587500Y-56626000D03*
X83412500Y-56626000D03*
%TD*%
D21*
%TO.C,R37*%
X118000000Y-47800000D03*
X118000000Y-45975000D03*
%TD*%
D14*
%TO.C,D5*%
X76750000Y-52785700D03*
X79250000Y-52785700D03*
%TD*%
D16*
%TO.C,R3*%
X81587500Y-43796000D03*
X83412500Y-43796000D03*
%TD*%
D14*
%TO.C,D23*%
X74425000Y-59194300D03*
X71925000Y-59194300D03*
%TD*%
D16*
%TO.C,R18*%
X85610000Y-63071400D03*
X87435000Y-63071400D03*
%TD*%
D14*
%TO.C,D13*%
X76750000Y-73357100D03*
X79250000Y-73357100D03*
%TD*%
%TO.C,D31*%
X79250000Y-78500000D03*
X76750000Y-78500000D03*
%TD*%
D16*
%TO.C,R34*%
X72587500Y-38000000D03*
X74412500Y-38000000D03*
%TD*%
D14*
%TO.C,D3*%
X79250000Y-47642900D03*
X76750000Y-47642900D03*
%TD*%
%TO.C,D9*%
X79250000Y-63071400D03*
X76750000Y-63071400D03*
%TD*%
%TO.C,D32*%
X91400000Y-37990000D03*
X88900000Y-37990000D03*
%TD*%
D16*
%TO.C,R14*%
X85610000Y-57928600D03*
X87435000Y-57928600D03*
%TD*%
%TO.C,R9*%
X81587500Y-51494000D03*
X83412500Y-51494000D03*
%TD*%
%TO.C,R12*%
X85610000Y-55357100D03*
X87435000Y-55357100D03*
%TD*%
%TO.C,R20*%
X85610000Y-65642900D03*
X87435000Y-65642900D03*
%TD*%
%TO.C,R33*%
X77087500Y-38000000D03*
X78912500Y-38000000D03*
%TD*%
D14*
%TO.C,D15*%
X74425000Y-79727600D03*
X71925000Y-79727600D03*
%TD*%
%TO.C,D11*%
X79250000Y-68214300D03*
X76750000Y-68214300D03*
%TD*%
D16*
%TO.C,R10*%
X85610000Y-52785700D03*
X87435000Y-52785700D03*
%TD*%
%TO.C,R8*%
X85610000Y-50214300D03*
X87435000Y-50214300D03*
%TD*%
M02*
