%TF.GenerationSoftware,KiCad,Pcbnew,(6.0.2)*%
%TF.CreationDate,2022-05-01T20:43:16+10:00*%
%TF.ProjectId,brother-esp32,62726f74-6865-4722-9d65-737033322e6b,rev?*%
%TF.SameCoordinates,Original*%
%TF.FileFunction,Legend,Top*%
%TF.FilePolarity,Positive*%
%FSLAX46Y46*%
G04 Gerber Fmt 4.6, Leading zero omitted, Abs format (unit mm)*
G04 Created by KiCad (PCBNEW (6.0.2)) date 2022-05-01 20:43:16*
%MOMM*%
%LPD*%
G01*
G04 APERTURE LIST*
%ADD10C,0.150000*%
%ADD11C,0.200000*%
%ADD12C,0.127000*%
%ADD13C,0.120000*%
G04 APERTURE END LIST*
D10*
%TO.C,J1*%
X66456666Y-39442380D02*
X66456666Y-40156666D01*
X66409047Y-40299523D01*
X66313809Y-40394761D01*
X66170952Y-40442380D01*
X66075714Y-40442380D01*
X67456666Y-40442380D02*
X66885238Y-40442380D01*
X67170952Y-40442380D02*
X67170952Y-39442380D01*
X67075714Y-39585238D01*
X66980476Y-39680476D01*
X66885238Y-39728095D01*
%TO.C,U1*%
X90430380Y-65326904D02*
X91239904Y-65326904D01*
X91335142Y-65279285D01*
X91382761Y-65231666D01*
X91430380Y-65136428D01*
X91430380Y-64945952D01*
X91382761Y-64850714D01*
X91335142Y-64803095D01*
X91239904Y-64755476D01*
X90430380Y-64755476D01*
X91430380Y-63755476D02*
X91430380Y-64326904D01*
X91430380Y-64041190D02*
X90430380Y-64041190D01*
X90573238Y-64136428D01*
X90668476Y-64231666D01*
X90716095Y-64326904D01*
%TO.C,R35*%
X112782380Y-49830357D02*
X112306190Y-50163690D01*
X112782380Y-50401785D02*
X111782380Y-50401785D01*
X111782380Y-50020833D01*
X111830000Y-49925595D01*
X111877619Y-49877976D01*
X111972857Y-49830357D01*
X112115714Y-49830357D01*
X112210952Y-49877976D01*
X112258571Y-49925595D01*
X112306190Y-50020833D01*
X112306190Y-50401785D01*
X111782380Y-49497023D02*
X111782380Y-48877976D01*
X112163333Y-49211309D01*
X112163333Y-49068452D01*
X112210952Y-48973214D01*
X112258571Y-48925595D01*
X112353809Y-48877976D01*
X112591904Y-48877976D01*
X112687142Y-48925595D01*
X112734761Y-48973214D01*
X112782380Y-49068452D01*
X112782380Y-49354166D01*
X112734761Y-49449404D01*
X112687142Y-49497023D01*
X111782380Y-47973214D02*
X111782380Y-48449404D01*
X112258571Y-48497023D01*
X112210952Y-48449404D01*
X112163333Y-48354166D01*
X112163333Y-48116071D01*
X112210952Y-48020833D01*
X112258571Y-47973214D01*
X112353809Y-47925595D01*
X112591904Y-47925595D01*
X112687142Y-47973214D01*
X112734761Y-48020833D01*
X112782380Y-48116071D01*
X112782380Y-48354166D01*
X112734761Y-48449404D01*
X112687142Y-48497023D01*
%TO.C,U3*%
X111798095Y-69999380D02*
X111798095Y-70808904D01*
X111845714Y-70904142D01*
X111893333Y-70951761D01*
X111988571Y-70999380D01*
X112179047Y-70999380D01*
X112274285Y-70951761D01*
X112321904Y-70904142D01*
X112369523Y-70808904D01*
X112369523Y-69999380D01*
X112750476Y-69999380D02*
X113369523Y-69999380D01*
X113036190Y-70380333D01*
X113179047Y-70380333D01*
X113274285Y-70427952D01*
X113321904Y-70475571D01*
X113369523Y-70570809D01*
X113369523Y-70808904D01*
X113321904Y-70904142D01*
X113274285Y-70951761D01*
X113179047Y-70999380D01*
X112893333Y-70999380D01*
X112798095Y-70951761D01*
X112750476Y-70904142D01*
%TO.C,D6*%
X77131904Y-55952380D02*
X77131904Y-54952380D01*
X77370000Y-54952380D01*
X77512857Y-55000000D01*
X77608095Y-55095238D01*
X77655714Y-55190476D01*
X77703333Y-55380952D01*
X77703333Y-55523809D01*
X77655714Y-55714285D01*
X77608095Y-55809523D01*
X77512857Y-55904761D01*
X77370000Y-55952380D01*
X77131904Y-55952380D01*
X78560476Y-54952380D02*
X78370000Y-54952380D01*
X78274761Y-55000000D01*
X78227142Y-55047619D01*
X78131904Y-55190476D01*
X78084285Y-55380952D01*
X78084285Y-55761904D01*
X78131904Y-55857142D01*
X78179523Y-55904761D01*
X78274761Y-55952380D01*
X78465238Y-55952380D01*
X78560476Y-55904761D01*
X78608095Y-55857142D01*
X78655714Y-55761904D01*
X78655714Y-55523809D01*
X78608095Y-55428571D01*
X78560476Y-55380952D01*
X78465238Y-55333333D01*
X78274761Y-55333333D01*
X78179523Y-55380952D01*
X78131904Y-55428571D01*
X78084285Y-55523809D01*
%TO.C,D22*%
X71845714Y-57112380D02*
X71845714Y-56112380D01*
X72083809Y-56112380D01*
X72226666Y-56160000D01*
X72321904Y-56255238D01*
X72369523Y-56350476D01*
X72417142Y-56540952D01*
X72417142Y-56683809D01*
X72369523Y-56874285D01*
X72321904Y-56969523D01*
X72226666Y-57064761D01*
X72083809Y-57112380D01*
X71845714Y-57112380D01*
X72798095Y-56207619D02*
X72845714Y-56160000D01*
X72940952Y-56112380D01*
X73179047Y-56112380D01*
X73274285Y-56160000D01*
X73321904Y-56207619D01*
X73369523Y-56302857D01*
X73369523Y-56398095D01*
X73321904Y-56540952D01*
X72750476Y-57112380D01*
X73369523Y-57112380D01*
X73750476Y-56207619D02*
X73798095Y-56160000D01*
X73893333Y-56112380D01*
X74131428Y-56112380D01*
X74226666Y-56160000D01*
X74274285Y-56207619D01*
X74321904Y-56302857D01*
X74321904Y-56398095D01*
X74274285Y-56540952D01*
X73702857Y-57112380D01*
X74321904Y-57112380D01*
%TO.C,D25*%
X71975714Y-64802380D02*
X71975714Y-63802380D01*
X72213809Y-63802380D01*
X72356666Y-63850000D01*
X72451904Y-63945238D01*
X72499523Y-64040476D01*
X72547142Y-64230952D01*
X72547142Y-64373809D01*
X72499523Y-64564285D01*
X72451904Y-64659523D01*
X72356666Y-64754761D01*
X72213809Y-64802380D01*
X71975714Y-64802380D01*
X72928095Y-63897619D02*
X72975714Y-63850000D01*
X73070952Y-63802380D01*
X73309047Y-63802380D01*
X73404285Y-63850000D01*
X73451904Y-63897619D01*
X73499523Y-63992857D01*
X73499523Y-64088095D01*
X73451904Y-64230952D01*
X72880476Y-64802380D01*
X73499523Y-64802380D01*
X74404285Y-63802380D02*
X73928095Y-63802380D01*
X73880476Y-64278571D01*
X73928095Y-64230952D01*
X74023333Y-64183333D01*
X74261428Y-64183333D01*
X74356666Y-64230952D01*
X74404285Y-64278571D01*
X74451904Y-64373809D01*
X74451904Y-64611904D01*
X74404285Y-64707142D01*
X74356666Y-64754761D01*
X74261428Y-64802380D01*
X74023333Y-64802380D01*
X73928095Y-64754761D01*
X73880476Y-64707142D01*
%TO.C,C2*%
X107757142Y-49354166D02*
X107804761Y-49401785D01*
X107852380Y-49544642D01*
X107852380Y-49639880D01*
X107804761Y-49782738D01*
X107709523Y-49877976D01*
X107614285Y-49925595D01*
X107423809Y-49973214D01*
X107280952Y-49973214D01*
X107090476Y-49925595D01*
X106995238Y-49877976D01*
X106900000Y-49782738D01*
X106852380Y-49639880D01*
X106852380Y-49544642D01*
X106900000Y-49401785D01*
X106947619Y-49354166D01*
X106947619Y-48973214D02*
X106900000Y-48925595D01*
X106852380Y-48830357D01*
X106852380Y-48592261D01*
X106900000Y-48497023D01*
X106947619Y-48449404D01*
X107042857Y-48401785D01*
X107138095Y-48401785D01*
X107280952Y-48449404D01*
X107852380Y-49020833D01*
X107852380Y-48401785D01*
%TO.C,D24*%
X72015714Y-62342380D02*
X72015714Y-61342380D01*
X72253809Y-61342380D01*
X72396666Y-61390000D01*
X72491904Y-61485238D01*
X72539523Y-61580476D01*
X72587142Y-61770952D01*
X72587142Y-61913809D01*
X72539523Y-62104285D01*
X72491904Y-62199523D01*
X72396666Y-62294761D01*
X72253809Y-62342380D01*
X72015714Y-62342380D01*
X72968095Y-61437619D02*
X73015714Y-61390000D01*
X73110952Y-61342380D01*
X73349047Y-61342380D01*
X73444285Y-61390000D01*
X73491904Y-61437619D01*
X73539523Y-61532857D01*
X73539523Y-61628095D01*
X73491904Y-61770952D01*
X72920476Y-62342380D01*
X73539523Y-62342380D01*
X74396666Y-61675714D02*
X74396666Y-62342380D01*
X74158571Y-61294761D02*
X73920476Y-62009047D01*
X74539523Y-62009047D01*
%TO.C,D1*%
X77211904Y-42972380D02*
X77211904Y-41972380D01*
X77450000Y-41972380D01*
X77592857Y-42020000D01*
X77688095Y-42115238D01*
X77735714Y-42210476D01*
X77783333Y-42400952D01*
X77783333Y-42543809D01*
X77735714Y-42734285D01*
X77688095Y-42829523D01*
X77592857Y-42924761D01*
X77450000Y-42972380D01*
X77211904Y-42972380D01*
X78735714Y-42972380D02*
X78164285Y-42972380D01*
X78450000Y-42972380D02*
X78450000Y-41972380D01*
X78354761Y-42115238D01*
X78259523Y-42210476D01*
X78164285Y-42258095D01*
%TO.C,R1*%
X82303333Y-40292380D02*
X81970000Y-39816190D01*
X81731904Y-40292380D02*
X81731904Y-39292380D01*
X82112857Y-39292380D01*
X82208095Y-39340000D01*
X82255714Y-39387619D01*
X82303333Y-39482857D01*
X82303333Y-39625714D01*
X82255714Y-39720952D01*
X82208095Y-39768571D01*
X82112857Y-39816190D01*
X81731904Y-39816190D01*
X83255714Y-40292380D02*
X82684285Y-40292380D01*
X82970000Y-40292380D02*
X82970000Y-39292380D01*
X82874761Y-39435238D01*
X82779523Y-39530476D01*
X82684285Y-39578095D01*
%TO.C,D20*%
X71975714Y-52032380D02*
X71975714Y-51032380D01*
X72213809Y-51032380D01*
X72356666Y-51080000D01*
X72451904Y-51175238D01*
X72499523Y-51270476D01*
X72547142Y-51460952D01*
X72547142Y-51603809D01*
X72499523Y-51794285D01*
X72451904Y-51889523D01*
X72356666Y-51984761D01*
X72213809Y-52032380D01*
X71975714Y-52032380D01*
X72928095Y-51127619D02*
X72975714Y-51080000D01*
X73070952Y-51032380D01*
X73309047Y-51032380D01*
X73404285Y-51080000D01*
X73451904Y-51127619D01*
X73499523Y-51222857D01*
X73499523Y-51318095D01*
X73451904Y-51460952D01*
X72880476Y-52032380D01*
X73499523Y-52032380D01*
X74118571Y-51032380D02*
X74213809Y-51032380D01*
X74309047Y-51080000D01*
X74356666Y-51127619D01*
X74404285Y-51222857D01*
X74451904Y-51413333D01*
X74451904Y-51651428D01*
X74404285Y-51841904D01*
X74356666Y-51937142D01*
X74309047Y-51984761D01*
X74213809Y-52032380D01*
X74118571Y-52032380D01*
X74023333Y-51984761D01*
X73975714Y-51937142D01*
X73928095Y-51841904D01*
X73880476Y-51651428D01*
X73880476Y-51413333D01*
X73928095Y-51222857D01*
X73975714Y-51127619D01*
X74023333Y-51080000D01*
X74118571Y-51032380D01*
%TO.C,D26*%
X71935714Y-67342380D02*
X71935714Y-66342380D01*
X72173809Y-66342380D01*
X72316666Y-66390000D01*
X72411904Y-66485238D01*
X72459523Y-66580476D01*
X72507142Y-66770952D01*
X72507142Y-66913809D01*
X72459523Y-67104285D01*
X72411904Y-67199523D01*
X72316666Y-67294761D01*
X72173809Y-67342380D01*
X71935714Y-67342380D01*
X72888095Y-66437619D02*
X72935714Y-66390000D01*
X73030952Y-66342380D01*
X73269047Y-66342380D01*
X73364285Y-66390000D01*
X73411904Y-66437619D01*
X73459523Y-66532857D01*
X73459523Y-66628095D01*
X73411904Y-66770952D01*
X72840476Y-67342380D01*
X73459523Y-67342380D01*
X74316666Y-66342380D02*
X74126190Y-66342380D01*
X74030952Y-66390000D01*
X73983333Y-66437619D01*
X73888095Y-66580476D01*
X73840476Y-66770952D01*
X73840476Y-67151904D01*
X73888095Y-67247142D01*
X73935714Y-67294761D01*
X74030952Y-67342380D01*
X74221428Y-67342380D01*
X74316666Y-67294761D01*
X74364285Y-67247142D01*
X74411904Y-67151904D01*
X74411904Y-66913809D01*
X74364285Y-66818571D01*
X74316666Y-66770952D01*
X74221428Y-66723333D01*
X74030952Y-66723333D01*
X73935714Y-66770952D01*
X73888095Y-66818571D01*
X73840476Y-66913809D01*
%TO.C,D30*%
X76765714Y-76462380D02*
X76765714Y-75462380D01*
X77003809Y-75462380D01*
X77146666Y-75510000D01*
X77241904Y-75605238D01*
X77289523Y-75700476D01*
X77337142Y-75890952D01*
X77337142Y-76033809D01*
X77289523Y-76224285D01*
X77241904Y-76319523D01*
X77146666Y-76414761D01*
X77003809Y-76462380D01*
X76765714Y-76462380D01*
X77670476Y-75462380D02*
X78289523Y-75462380D01*
X77956190Y-75843333D01*
X78099047Y-75843333D01*
X78194285Y-75890952D01*
X78241904Y-75938571D01*
X78289523Y-76033809D01*
X78289523Y-76271904D01*
X78241904Y-76367142D01*
X78194285Y-76414761D01*
X78099047Y-76462380D01*
X77813333Y-76462380D01*
X77718095Y-76414761D01*
X77670476Y-76367142D01*
X78908571Y-75462380D02*
X79003809Y-75462380D01*
X79099047Y-75510000D01*
X79146666Y-75557619D01*
X79194285Y-75652857D01*
X79241904Y-75843333D01*
X79241904Y-76081428D01*
X79194285Y-76271904D01*
X79146666Y-76367142D01*
X79099047Y-76414761D01*
X79003809Y-76462380D01*
X78908571Y-76462380D01*
X78813333Y-76414761D01*
X78765714Y-76367142D01*
X78718095Y-76271904D01*
X78670476Y-76081428D01*
X78670476Y-75843333D01*
X78718095Y-75652857D01*
X78765714Y-75557619D01*
X78813333Y-75510000D01*
X78908571Y-75462380D01*
%TO.C,C1*%
X95267142Y-39056666D02*
X95314761Y-39104285D01*
X95362380Y-39247142D01*
X95362380Y-39342380D01*
X95314761Y-39485238D01*
X95219523Y-39580476D01*
X95124285Y-39628095D01*
X94933809Y-39675714D01*
X94790952Y-39675714D01*
X94600476Y-39628095D01*
X94505238Y-39580476D01*
X94410000Y-39485238D01*
X94362380Y-39342380D01*
X94362380Y-39247142D01*
X94410000Y-39104285D01*
X94457619Y-39056666D01*
X95362380Y-38104285D02*
X95362380Y-38675714D01*
X95362380Y-38390000D02*
X94362380Y-38390000D01*
X94505238Y-38485238D01*
X94600476Y-38580476D01*
X94648095Y-38675714D01*
%TO.C,D7*%
X77241904Y-58512380D02*
X77241904Y-57512380D01*
X77480000Y-57512380D01*
X77622857Y-57560000D01*
X77718095Y-57655238D01*
X77765714Y-57750476D01*
X77813333Y-57940952D01*
X77813333Y-58083809D01*
X77765714Y-58274285D01*
X77718095Y-58369523D01*
X77622857Y-58464761D01*
X77480000Y-58512380D01*
X77241904Y-58512380D01*
X78146666Y-57512380D02*
X78813333Y-57512380D01*
X78384761Y-58512380D01*
%TO.C,D29*%
X71955714Y-75092380D02*
X71955714Y-74092380D01*
X72193809Y-74092380D01*
X72336666Y-74140000D01*
X72431904Y-74235238D01*
X72479523Y-74330476D01*
X72527142Y-74520952D01*
X72527142Y-74663809D01*
X72479523Y-74854285D01*
X72431904Y-74949523D01*
X72336666Y-75044761D01*
X72193809Y-75092380D01*
X71955714Y-75092380D01*
X72908095Y-74187619D02*
X72955714Y-74140000D01*
X73050952Y-74092380D01*
X73289047Y-74092380D01*
X73384285Y-74140000D01*
X73431904Y-74187619D01*
X73479523Y-74282857D01*
X73479523Y-74378095D01*
X73431904Y-74520952D01*
X72860476Y-75092380D01*
X73479523Y-75092380D01*
X73955714Y-75092380D02*
X74146190Y-75092380D01*
X74241428Y-75044761D01*
X74289047Y-74997142D01*
X74384285Y-74854285D01*
X74431904Y-74663809D01*
X74431904Y-74282857D01*
X74384285Y-74187619D01*
X74336666Y-74140000D01*
X74241428Y-74092380D01*
X74050952Y-74092380D01*
X73955714Y-74140000D01*
X73908095Y-74187619D01*
X73860476Y-74282857D01*
X73860476Y-74520952D01*
X73908095Y-74616190D01*
X73955714Y-74663809D01*
X74050952Y-74711428D01*
X74241428Y-74711428D01*
X74336666Y-74663809D01*
X74384285Y-74616190D01*
X74431904Y-74520952D01*
%TO.C,D10*%
X76845714Y-66132380D02*
X76845714Y-65132380D01*
X77083809Y-65132380D01*
X77226666Y-65180000D01*
X77321904Y-65275238D01*
X77369523Y-65370476D01*
X77417142Y-65560952D01*
X77417142Y-65703809D01*
X77369523Y-65894285D01*
X77321904Y-65989523D01*
X77226666Y-66084761D01*
X77083809Y-66132380D01*
X76845714Y-66132380D01*
X78369523Y-66132380D02*
X77798095Y-66132380D01*
X78083809Y-66132380D02*
X78083809Y-65132380D01*
X77988571Y-65275238D01*
X77893333Y-65370476D01*
X77798095Y-65418095D01*
X78988571Y-65132380D02*
X79083809Y-65132380D01*
X79179047Y-65180000D01*
X79226666Y-65227619D01*
X79274285Y-65322857D01*
X79321904Y-65513333D01*
X79321904Y-65751428D01*
X79274285Y-65941904D01*
X79226666Y-66037142D01*
X79179047Y-66084761D01*
X79083809Y-66132380D01*
X78988571Y-66132380D01*
X78893333Y-66084761D01*
X78845714Y-66037142D01*
X78798095Y-65941904D01*
X78750476Y-65751428D01*
X78750476Y-65513333D01*
X78798095Y-65322857D01*
X78845714Y-65227619D01*
X78893333Y-65180000D01*
X78988571Y-65132380D01*
%TO.C,R6*%
X86323333Y-46782380D02*
X85990000Y-46306190D01*
X85751904Y-46782380D02*
X85751904Y-45782380D01*
X86132857Y-45782380D01*
X86228095Y-45830000D01*
X86275714Y-45877619D01*
X86323333Y-45972857D01*
X86323333Y-46115714D01*
X86275714Y-46210952D01*
X86228095Y-46258571D01*
X86132857Y-46306190D01*
X85751904Y-46306190D01*
X87180476Y-45782380D02*
X86990000Y-45782380D01*
X86894761Y-45830000D01*
X86847142Y-45877619D01*
X86751904Y-46020476D01*
X86704285Y-46210952D01*
X86704285Y-46591904D01*
X86751904Y-46687142D01*
X86799523Y-46734761D01*
X86894761Y-46782380D01*
X87085238Y-46782380D01*
X87180476Y-46734761D01*
X87228095Y-46687142D01*
X87275714Y-46591904D01*
X87275714Y-46353809D01*
X87228095Y-46258571D01*
X87180476Y-46210952D01*
X87085238Y-46163333D01*
X86894761Y-46163333D01*
X86799523Y-46210952D01*
X86751904Y-46258571D01*
X86704285Y-46353809D01*
%TO.C,D28*%
X71955714Y-72632380D02*
X71955714Y-71632380D01*
X72193809Y-71632380D01*
X72336666Y-71680000D01*
X72431904Y-71775238D01*
X72479523Y-71870476D01*
X72527142Y-72060952D01*
X72527142Y-72203809D01*
X72479523Y-72394285D01*
X72431904Y-72489523D01*
X72336666Y-72584761D01*
X72193809Y-72632380D01*
X71955714Y-72632380D01*
X72908095Y-71727619D02*
X72955714Y-71680000D01*
X73050952Y-71632380D01*
X73289047Y-71632380D01*
X73384285Y-71680000D01*
X73431904Y-71727619D01*
X73479523Y-71822857D01*
X73479523Y-71918095D01*
X73431904Y-72060952D01*
X72860476Y-72632380D01*
X73479523Y-72632380D01*
X74050952Y-72060952D02*
X73955714Y-72013333D01*
X73908095Y-71965714D01*
X73860476Y-71870476D01*
X73860476Y-71822857D01*
X73908095Y-71727619D01*
X73955714Y-71680000D01*
X74050952Y-71632380D01*
X74241428Y-71632380D01*
X74336666Y-71680000D01*
X74384285Y-71727619D01*
X74431904Y-71822857D01*
X74431904Y-71870476D01*
X74384285Y-71965714D01*
X74336666Y-72013333D01*
X74241428Y-72060952D01*
X74050952Y-72060952D01*
X73955714Y-72108571D01*
X73908095Y-72156190D01*
X73860476Y-72251428D01*
X73860476Y-72441904D01*
X73908095Y-72537142D01*
X73955714Y-72584761D01*
X74050952Y-72632380D01*
X74241428Y-72632380D01*
X74336666Y-72584761D01*
X74384285Y-72537142D01*
X74431904Y-72441904D01*
X74431904Y-72251428D01*
X74384285Y-72156190D01*
X74336666Y-72108571D01*
X74241428Y-72060952D01*
%TO.C,R2*%
X86323333Y-41612380D02*
X85990000Y-41136190D01*
X85751904Y-41612380D02*
X85751904Y-40612380D01*
X86132857Y-40612380D01*
X86228095Y-40660000D01*
X86275714Y-40707619D01*
X86323333Y-40802857D01*
X86323333Y-40945714D01*
X86275714Y-41040952D01*
X86228095Y-41088571D01*
X86132857Y-41136190D01*
X85751904Y-41136190D01*
X86704285Y-40707619D02*
X86751904Y-40660000D01*
X86847142Y-40612380D01*
X87085238Y-40612380D01*
X87180476Y-40660000D01*
X87228095Y-40707619D01*
X87275714Y-40802857D01*
X87275714Y-40898095D01*
X87228095Y-41040952D01*
X86656666Y-41612380D01*
X87275714Y-41612380D01*
%TO.C,R15*%
X81977142Y-58372380D02*
X81643809Y-57896190D01*
X81405714Y-58372380D02*
X81405714Y-57372380D01*
X81786666Y-57372380D01*
X81881904Y-57420000D01*
X81929523Y-57467619D01*
X81977142Y-57562857D01*
X81977142Y-57705714D01*
X81929523Y-57800952D01*
X81881904Y-57848571D01*
X81786666Y-57896190D01*
X81405714Y-57896190D01*
X82929523Y-58372380D02*
X82358095Y-58372380D01*
X82643809Y-58372380D02*
X82643809Y-57372380D01*
X82548571Y-57515238D01*
X82453333Y-57610476D01*
X82358095Y-57658095D01*
X83834285Y-57372380D02*
X83358095Y-57372380D01*
X83310476Y-57848571D01*
X83358095Y-57800952D01*
X83453333Y-57753333D01*
X83691428Y-57753333D01*
X83786666Y-57800952D01*
X83834285Y-57848571D01*
X83881904Y-57943809D01*
X83881904Y-58181904D01*
X83834285Y-58277142D01*
X83786666Y-58324761D01*
X83691428Y-58372380D01*
X83453333Y-58372380D01*
X83358095Y-58324761D01*
X83310476Y-58277142D01*
%TO.C,R30*%
X85879642Y-77522380D02*
X85546309Y-77046190D01*
X85308214Y-77522380D02*
X85308214Y-76522380D01*
X85689166Y-76522380D01*
X85784404Y-76570000D01*
X85832023Y-76617619D01*
X85879642Y-76712857D01*
X85879642Y-76855714D01*
X85832023Y-76950952D01*
X85784404Y-76998571D01*
X85689166Y-77046190D01*
X85308214Y-77046190D01*
X86212976Y-76522380D02*
X86832023Y-76522380D01*
X86498690Y-76903333D01*
X86641547Y-76903333D01*
X86736785Y-76950952D01*
X86784404Y-76998571D01*
X86832023Y-77093809D01*
X86832023Y-77331904D01*
X86784404Y-77427142D01*
X86736785Y-77474761D01*
X86641547Y-77522380D01*
X86355833Y-77522380D01*
X86260595Y-77474761D01*
X86212976Y-77427142D01*
X87451071Y-76522380D02*
X87546309Y-76522380D01*
X87641547Y-76570000D01*
X87689166Y-76617619D01*
X87736785Y-76712857D01*
X87784404Y-76903333D01*
X87784404Y-77141428D01*
X87736785Y-77331904D01*
X87689166Y-77427142D01*
X87641547Y-77474761D01*
X87546309Y-77522380D01*
X87451071Y-77522380D01*
X87355833Y-77474761D01*
X87308214Y-77427142D01*
X87260595Y-77331904D01*
X87212976Y-77141428D01*
X87212976Y-76903333D01*
X87260595Y-76712857D01*
X87308214Y-76617619D01*
X87355833Y-76570000D01*
X87451071Y-76522380D01*
%TO.C,R28*%
X85879642Y-74950980D02*
X85546309Y-74474790D01*
X85308214Y-74950980D02*
X85308214Y-73950980D01*
X85689166Y-73950980D01*
X85784404Y-73998600D01*
X85832023Y-74046219D01*
X85879642Y-74141457D01*
X85879642Y-74284314D01*
X85832023Y-74379552D01*
X85784404Y-74427171D01*
X85689166Y-74474790D01*
X85308214Y-74474790D01*
X86260595Y-74046219D02*
X86308214Y-73998600D01*
X86403452Y-73950980D01*
X86641547Y-73950980D01*
X86736785Y-73998600D01*
X86784404Y-74046219D01*
X86832023Y-74141457D01*
X86832023Y-74236695D01*
X86784404Y-74379552D01*
X86212976Y-74950980D01*
X86832023Y-74950980D01*
X87403452Y-74379552D02*
X87308214Y-74331933D01*
X87260595Y-74284314D01*
X87212976Y-74189076D01*
X87212976Y-74141457D01*
X87260595Y-74046219D01*
X87308214Y-73998600D01*
X87403452Y-73950980D01*
X87593928Y-73950980D01*
X87689166Y-73998600D01*
X87736785Y-74046219D01*
X87784404Y-74141457D01*
X87784404Y-74189076D01*
X87736785Y-74284314D01*
X87689166Y-74331933D01*
X87593928Y-74379552D01*
X87403452Y-74379552D01*
X87308214Y-74427171D01*
X87260595Y-74474790D01*
X87212976Y-74570028D01*
X87212976Y-74760504D01*
X87260595Y-74855742D01*
X87308214Y-74903361D01*
X87403452Y-74950980D01*
X87593928Y-74950980D01*
X87689166Y-74903361D01*
X87736785Y-74855742D01*
X87784404Y-74760504D01*
X87784404Y-74570028D01*
X87736785Y-74474790D01*
X87689166Y-74427171D01*
X87593928Y-74379552D01*
%TO.C,R19*%
X81917142Y-63612380D02*
X81583809Y-63136190D01*
X81345714Y-63612380D02*
X81345714Y-62612380D01*
X81726666Y-62612380D01*
X81821904Y-62660000D01*
X81869523Y-62707619D01*
X81917142Y-62802857D01*
X81917142Y-62945714D01*
X81869523Y-63040952D01*
X81821904Y-63088571D01*
X81726666Y-63136190D01*
X81345714Y-63136190D01*
X82869523Y-63612380D02*
X82298095Y-63612380D01*
X82583809Y-63612380D02*
X82583809Y-62612380D01*
X82488571Y-62755238D01*
X82393333Y-62850476D01*
X82298095Y-62898095D01*
X83345714Y-63612380D02*
X83536190Y-63612380D01*
X83631428Y-63564761D01*
X83679047Y-63517142D01*
X83774285Y-63374285D01*
X83821904Y-63183809D01*
X83821904Y-62802857D01*
X83774285Y-62707619D01*
X83726666Y-62660000D01*
X83631428Y-62612380D01*
X83440952Y-62612380D01*
X83345714Y-62660000D01*
X83298095Y-62707619D01*
X83250476Y-62802857D01*
X83250476Y-63040952D01*
X83298095Y-63136190D01*
X83345714Y-63183809D01*
X83440952Y-63231428D01*
X83631428Y-63231428D01*
X83726666Y-63183809D01*
X83774285Y-63136190D01*
X83821904Y-63040952D01*
%TO.C,R7*%
X82563333Y-48202380D02*
X82230000Y-47726190D01*
X81991904Y-48202380D02*
X81991904Y-47202380D01*
X82372857Y-47202380D01*
X82468095Y-47250000D01*
X82515714Y-47297619D01*
X82563333Y-47392857D01*
X82563333Y-47535714D01*
X82515714Y-47630952D01*
X82468095Y-47678571D01*
X82372857Y-47726190D01*
X81991904Y-47726190D01*
X82896666Y-47202380D02*
X83563333Y-47202380D01*
X83134761Y-48202380D01*
%TO.C,R5*%
X82503333Y-45582380D02*
X82170000Y-45106190D01*
X81931904Y-45582380D02*
X81931904Y-44582380D01*
X82312857Y-44582380D01*
X82408095Y-44630000D01*
X82455714Y-44677619D01*
X82503333Y-44772857D01*
X82503333Y-44915714D01*
X82455714Y-45010952D01*
X82408095Y-45058571D01*
X82312857Y-45106190D01*
X81931904Y-45106190D01*
X83408095Y-44582380D02*
X82931904Y-44582380D01*
X82884285Y-45058571D01*
X82931904Y-45010952D01*
X83027142Y-44963333D01*
X83265238Y-44963333D01*
X83360476Y-45010952D01*
X83408095Y-45058571D01*
X83455714Y-45153809D01*
X83455714Y-45391904D01*
X83408095Y-45487142D01*
X83360476Y-45534761D01*
X83265238Y-45582380D01*
X83027142Y-45582380D01*
X82931904Y-45534761D01*
X82884285Y-45487142D01*
%TO.C,U2*%
X133048095Y-37594880D02*
X133048095Y-38404404D01*
X133095714Y-38499642D01*
X133143333Y-38547261D01*
X133238571Y-38594880D01*
X133429047Y-38594880D01*
X133524285Y-38547261D01*
X133571904Y-38499642D01*
X133619523Y-38404404D01*
X133619523Y-37594880D01*
X134048095Y-37690119D02*
X134095714Y-37642500D01*
X134190952Y-37594880D01*
X134429047Y-37594880D01*
X134524285Y-37642500D01*
X134571904Y-37690119D01*
X134619523Y-37785357D01*
X134619523Y-37880595D01*
X134571904Y-38023452D01*
X134000476Y-38594880D01*
X134619523Y-38594880D01*
%TO.C,R23*%
X81947142Y-68742380D02*
X81613809Y-68266190D01*
X81375714Y-68742380D02*
X81375714Y-67742380D01*
X81756666Y-67742380D01*
X81851904Y-67790000D01*
X81899523Y-67837619D01*
X81947142Y-67932857D01*
X81947142Y-68075714D01*
X81899523Y-68170952D01*
X81851904Y-68218571D01*
X81756666Y-68266190D01*
X81375714Y-68266190D01*
X82328095Y-67837619D02*
X82375714Y-67790000D01*
X82470952Y-67742380D01*
X82709047Y-67742380D01*
X82804285Y-67790000D01*
X82851904Y-67837619D01*
X82899523Y-67932857D01*
X82899523Y-68028095D01*
X82851904Y-68170952D01*
X82280476Y-68742380D01*
X82899523Y-68742380D01*
X83232857Y-67742380D02*
X83851904Y-67742380D01*
X83518571Y-68123333D01*
X83661428Y-68123333D01*
X83756666Y-68170952D01*
X83804285Y-68218571D01*
X83851904Y-68313809D01*
X83851904Y-68551904D01*
X83804285Y-68647142D01*
X83756666Y-68694761D01*
X83661428Y-68742380D01*
X83375714Y-68742380D01*
X83280476Y-68694761D01*
X83232857Y-68647142D01*
%TO.C,D8*%
X77241904Y-61052380D02*
X77241904Y-60052380D01*
X77480000Y-60052380D01*
X77622857Y-60100000D01*
X77718095Y-60195238D01*
X77765714Y-60290476D01*
X77813333Y-60480952D01*
X77813333Y-60623809D01*
X77765714Y-60814285D01*
X77718095Y-60909523D01*
X77622857Y-61004761D01*
X77480000Y-61052380D01*
X77241904Y-61052380D01*
X78384761Y-60480952D02*
X78289523Y-60433333D01*
X78241904Y-60385714D01*
X78194285Y-60290476D01*
X78194285Y-60242857D01*
X78241904Y-60147619D01*
X78289523Y-60100000D01*
X78384761Y-60052380D01*
X78575238Y-60052380D01*
X78670476Y-60100000D01*
X78718095Y-60147619D01*
X78765714Y-60242857D01*
X78765714Y-60290476D01*
X78718095Y-60385714D01*
X78670476Y-60433333D01*
X78575238Y-60480952D01*
X78384761Y-60480952D01*
X78289523Y-60528571D01*
X78241904Y-60576190D01*
X78194285Y-60671428D01*
X78194285Y-60861904D01*
X78241904Y-60957142D01*
X78289523Y-61004761D01*
X78384761Y-61052380D01*
X78575238Y-61052380D01*
X78670476Y-61004761D01*
X78718095Y-60957142D01*
X78765714Y-60861904D01*
X78765714Y-60671428D01*
X78718095Y-60576190D01*
X78670476Y-60528571D01*
X78575238Y-60480952D01*
%TO.C,R27*%
X81967142Y-73862380D02*
X81633809Y-73386190D01*
X81395714Y-73862380D02*
X81395714Y-72862380D01*
X81776666Y-72862380D01*
X81871904Y-72910000D01*
X81919523Y-72957619D01*
X81967142Y-73052857D01*
X81967142Y-73195714D01*
X81919523Y-73290952D01*
X81871904Y-73338571D01*
X81776666Y-73386190D01*
X81395714Y-73386190D01*
X82348095Y-72957619D02*
X82395714Y-72910000D01*
X82490952Y-72862380D01*
X82729047Y-72862380D01*
X82824285Y-72910000D01*
X82871904Y-72957619D01*
X82919523Y-73052857D01*
X82919523Y-73148095D01*
X82871904Y-73290952D01*
X82300476Y-73862380D01*
X82919523Y-73862380D01*
X83252857Y-72862380D02*
X83919523Y-72862380D01*
X83490952Y-73862380D01*
%TO.C,D18*%
X71955714Y-46862380D02*
X71955714Y-45862380D01*
X72193809Y-45862380D01*
X72336666Y-45910000D01*
X72431904Y-46005238D01*
X72479523Y-46100476D01*
X72527142Y-46290952D01*
X72527142Y-46433809D01*
X72479523Y-46624285D01*
X72431904Y-46719523D01*
X72336666Y-46814761D01*
X72193809Y-46862380D01*
X71955714Y-46862380D01*
X73479523Y-46862380D02*
X72908095Y-46862380D01*
X73193809Y-46862380D02*
X73193809Y-45862380D01*
X73098571Y-46005238D01*
X73003333Y-46100476D01*
X72908095Y-46148095D01*
X74050952Y-46290952D02*
X73955714Y-46243333D01*
X73908095Y-46195714D01*
X73860476Y-46100476D01*
X73860476Y-46052857D01*
X73908095Y-45957619D01*
X73955714Y-45910000D01*
X74050952Y-45862380D01*
X74241428Y-45862380D01*
X74336666Y-45910000D01*
X74384285Y-45957619D01*
X74431904Y-46052857D01*
X74431904Y-46100476D01*
X74384285Y-46195714D01*
X74336666Y-46243333D01*
X74241428Y-46290952D01*
X74050952Y-46290952D01*
X73955714Y-46338571D01*
X73908095Y-46386190D01*
X73860476Y-46481428D01*
X73860476Y-46671904D01*
X73908095Y-46767142D01*
X73955714Y-46814761D01*
X74050952Y-46862380D01*
X74241428Y-46862380D01*
X74336666Y-46814761D01*
X74384285Y-46767142D01*
X74431904Y-46671904D01*
X74431904Y-46481428D01*
X74384285Y-46386190D01*
X74336666Y-46338571D01*
X74241428Y-46290952D01*
%TO.C,D17*%
X71905714Y-44332380D02*
X71905714Y-43332380D01*
X72143809Y-43332380D01*
X72286666Y-43380000D01*
X72381904Y-43475238D01*
X72429523Y-43570476D01*
X72477142Y-43760952D01*
X72477142Y-43903809D01*
X72429523Y-44094285D01*
X72381904Y-44189523D01*
X72286666Y-44284761D01*
X72143809Y-44332380D01*
X71905714Y-44332380D01*
X73429523Y-44332380D02*
X72858095Y-44332380D01*
X73143809Y-44332380D02*
X73143809Y-43332380D01*
X73048571Y-43475238D01*
X72953333Y-43570476D01*
X72858095Y-43618095D01*
X73762857Y-43332380D02*
X74429523Y-43332380D01*
X74000952Y-44332380D01*
%TO.C,R32*%
X81827142Y-37032380D02*
X81493809Y-36556190D01*
X81255714Y-37032380D02*
X81255714Y-36032380D01*
X81636666Y-36032380D01*
X81731904Y-36080000D01*
X81779523Y-36127619D01*
X81827142Y-36222857D01*
X81827142Y-36365714D01*
X81779523Y-36460952D01*
X81731904Y-36508571D01*
X81636666Y-36556190D01*
X81255714Y-36556190D01*
X82160476Y-36032380D02*
X82779523Y-36032380D01*
X82446190Y-36413333D01*
X82589047Y-36413333D01*
X82684285Y-36460952D01*
X82731904Y-36508571D01*
X82779523Y-36603809D01*
X82779523Y-36841904D01*
X82731904Y-36937142D01*
X82684285Y-36984761D01*
X82589047Y-37032380D01*
X82303333Y-37032380D01*
X82208095Y-36984761D01*
X82160476Y-36937142D01*
X83160476Y-36127619D02*
X83208095Y-36080000D01*
X83303333Y-36032380D01*
X83541428Y-36032380D01*
X83636666Y-36080000D01*
X83684285Y-36127619D01*
X83731904Y-36222857D01*
X83731904Y-36318095D01*
X83684285Y-36460952D01*
X83112857Y-37032380D01*
X83731904Y-37032380D01*
%TO.C,R21*%
X81957142Y-66132380D02*
X81623809Y-65656190D01*
X81385714Y-66132380D02*
X81385714Y-65132380D01*
X81766666Y-65132380D01*
X81861904Y-65180000D01*
X81909523Y-65227619D01*
X81957142Y-65322857D01*
X81957142Y-65465714D01*
X81909523Y-65560952D01*
X81861904Y-65608571D01*
X81766666Y-65656190D01*
X81385714Y-65656190D01*
X82338095Y-65227619D02*
X82385714Y-65180000D01*
X82480952Y-65132380D01*
X82719047Y-65132380D01*
X82814285Y-65180000D01*
X82861904Y-65227619D01*
X82909523Y-65322857D01*
X82909523Y-65418095D01*
X82861904Y-65560952D01*
X82290476Y-66132380D01*
X82909523Y-66132380D01*
X83861904Y-66132380D02*
X83290476Y-66132380D01*
X83576190Y-66132380D02*
X83576190Y-65132380D01*
X83480952Y-65275238D01*
X83385714Y-65370476D01*
X83290476Y-65418095D01*
%TO.C,R22*%
X85879642Y-67236680D02*
X85546309Y-66760490D01*
X85308214Y-67236680D02*
X85308214Y-66236680D01*
X85689166Y-66236680D01*
X85784404Y-66284300D01*
X85832023Y-66331919D01*
X85879642Y-66427157D01*
X85879642Y-66570014D01*
X85832023Y-66665252D01*
X85784404Y-66712871D01*
X85689166Y-66760490D01*
X85308214Y-66760490D01*
X86260595Y-66331919D02*
X86308214Y-66284300D01*
X86403452Y-66236680D01*
X86641547Y-66236680D01*
X86736785Y-66284300D01*
X86784404Y-66331919D01*
X86832023Y-66427157D01*
X86832023Y-66522395D01*
X86784404Y-66665252D01*
X86212976Y-67236680D01*
X86832023Y-67236680D01*
X87212976Y-66331919D02*
X87260595Y-66284300D01*
X87355833Y-66236680D01*
X87593928Y-66236680D01*
X87689166Y-66284300D01*
X87736785Y-66331919D01*
X87784404Y-66427157D01*
X87784404Y-66522395D01*
X87736785Y-66665252D01*
X87165357Y-67236680D01*
X87784404Y-67236680D01*
%TO.C,D14*%
X71915714Y-77712380D02*
X71915714Y-76712380D01*
X72153809Y-76712380D01*
X72296666Y-76760000D01*
X72391904Y-76855238D01*
X72439523Y-76950476D01*
X72487142Y-77140952D01*
X72487142Y-77283809D01*
X72439523Y-77474285D01*
X72391904Y-77569523D01*
X72296666Y-77664761D01*
X72153809Y-77712380D01*
X71915714Y-77712380D01*
X73439523Y-77712380D02*
X72868095Y-77712380D01*
X73153809Y-77712380D02*
X73153809Y-76712380D01*
X73058571Y-76855238D01*
X72963333Y-76950476D01*
X72868095Y-76998095D01*
X74296666Y-77045714D02*
X74296666Y-77712380D01*
X74058571Y-76664761D02*
X73820476Y-77379047D01*
X74439523Y-77379047D01*
%TO.C,JP1*%
X101956666Y-40832380D02*
X101956666Y-41546666D01*
X101909047Y-41689523D01*
X101813809Y-41784761D01*
X101670952Y-41832380D01*
X101575714Y-41832380D01*
X102432857Y-41832380D02*
X102432857Y-40832380D01*
X102813809Y-40832380D01*
X102909047Y-40880000D01*
X102956666Y-40927619D01*
X103004285Y-41022857D01*
X103004285Y-41165714D01*
X102956666Y-41260952D01*
X102909047Y-41308571D01*
X102813809Y-41356190D01*
X102432857Y-41356190D01*
X103956666Y-41832380D02*
X103385238Y-41832380D01*
X103670952Y-41832380D02*
X103670952Y-40832380D01*
X103575714Y-40975238D01*
X103480476Y-41070476D01*
X103385238Y-41118095D01*
%TO.C,R31*%
X81987142Y-78972380D02*
X81653809Y-78496190D01*
X81415714Y-78972380D02*
X81415714Y-77972380D01*
X81796666Y-77972380D01*
X81891904Y-78020000D01*
X81939523Y-78067619D01*
X81987142Y-78162857D01*
X81987142Y-78305714D01*
X81939523Y-78400952D01*
X81891904Y-78448571D01*
X81796666Y-78496190D01*
X81415714Y-78496190D01*
X82320476Y-77972380D02*
X82939523Y-77972380D01*
X82606190Y-78353333D01*
X82749047Y-78353333D01*
X82844285Y-78400952D01*
X82891904Y-78448571D01*
X82939523Y-78543809D01*
X82939523Y-78781904D01*
X82891904Y-78877142D01*
X82844285Y-78924761D01*
X82749047Y-78972380D01*
X82463333Y-78972380D01*
X82368095Y-78924761D01*
X82320476Y-78877142D01*
X83891904Y-78972380D02*
X83320476Y-78972380D01*
X83606190Y-78972380D02*
X83606190Y-77972380D01*
X83510952Y-78115238D01*
X83415714Y-78210476D01*
X83320476Y-78258095D01*
%TO.C,JP2*%
X115396666Y-79632380D02*
X115396666Y-80346666D01*
X115349047Y-80489523D01*
X115253809Y-80584761D01*
X115110952Y-80632380D01*
X115015714Y-80632380D01*
X115872857Y-80632380D02*
X115872857Y-79632380D01*
X116253809Y-79632380D01*
X116349047Y-79680000D01*
X116396666Y-79727619D01*
X116444285Y-79822857D01*
X116444285Y-79965714D01*
X116396666Y-80060952D01*
X116349047Y-80108571D01*
X116253809Y-80156190D01*
X115872857Y-80156190D01*
X116825238Y-79727619D02*
X116872857Y-79680000D01*
X116968095Y-79632380D01*
X117206190Y-79632380D01*
X117301428Y-79680000D01*
X117349047Y-79727619D01*
X117396666Y-79822857D01*
X117396666Y-79918095D01*
X117349047Y-80060952D01*
X116777619Y-80632380D01*
X117396666Y-80632380D01*
%TO.C,D4*%
X77241904Y-50742380D02*
X77241904Y-49742380D01*
X77480000Y-49742380D01*
X77622857Y-49790000D01*
X77718095Y-49885238D01*
X77765714Y-49980476D01*
X77813333Y-50170952D01*
X77813333Y-50313809D01*
X77765714Y-50504285D01*
X77718095Y-50599523D01*
X77622857Y-50694761D01*
X77480000Y-50742380D01*
X77241904Y-50742380D01*
X78670476Y-50075714D02*
X78670476Y-50742380D01*
X78432380Y-49694761D02*
X78194285Y-50409047D01*
X78813333Y-50409047D01*
%TO.C,D27*%
X71915714Y-70032380D02*
X71915714Y-69032380D01*
X72153809Y-69032380D01*
X72296666Y-69080000D01*
X72391904Y-69175238D01*
X72439523Y-69270476D01*
X72487142Y-69460952D01*
X72487142Y-69603809D01*
X72439523Y-69794285D01*
X72391904Y-69889523D01*
X72296666Y-69984761D01*
X72153809Y-70032380D01*
X71915714Y-70032380D01*
X72868095Y-69127619D02*
X72915714Y-69080000D01*
X73010952Y-69032380D01*
X73249047Y-69032380D01*
X73344285Y-69080000D01*
X73391904Y-69127619D01*
X73439523Y-69222857D01*
X73439523Y-69318095D01*
X73391904Y-69460952D01*
X72820476Y-70032380D01*
X73439523Y-70032380D01*
X73772857Y-69032380D02*
X74439523Y-69032380D01*
X74010952Y-70032380D01*
%TO.C,D2*%
X77271904Y-45602380D02*
X77271904Y-44602380D01*
X77510000Y-44602380D01*
X77652857Y-44650000D01*
X77748095Y-44745238D01*
X77795714Y-44840476D01*
X77843333Y-45030952D01*
X77843333Y-45173809D01*
X77795714Y-45364285D01*
X77748095Y-45459523D01*
X77652857Y-45554761D01*
X77510000Y-45602380D01*
X77271904Y-45602380D01*
X78224285Y-44697619D02*
X78271904Y-44650000D01*
X78367142Y-44602380D01*
X78605238Y-44602380D01*
X78700476Y-44650000D01*
X78748095Y-44697619D01*
X78795714Y-44792857D01*
X78795714Y-44888095D01*
X78748095Y-45030952D01*
X78176666Y-45602380D01*
X78795714Y-45602380D01*
%TO.C,R25*%
X81987142Y-71392380D02*
X81653809Y-70916190D01*
X81415714Y-71392380D02*
X81415714Y-70392380D01*
X81796666Y-70392380D01*
X81891904Y-70440000D01*
X81939523Y-70487619D01*
X81987142Y-70582857D01*
X81987142Y-70725714D01*
X81939523Y-70820952D01*
X81891904Y-70868571D01*
X81796666Y-70916190D01*
X81415714Y-70916190D01*
X82368095Y-70487619D02*
X82415714Y-70440000D01*
X82510952Y-70392380D01*
X82749047Y-70392380D01*
X82844285Y-70440000D01*
X82891904Y-70487619D01*
X82939523Y-70582857D01*
X82939523Y-70678095D01*
X82891904Y-70820952D01*
X82320476Y-71392380D01*
X82939523Y-71392380D01*
X83844285Y-70392380D02*
X83368095Y-70392380D01*
X83320476Y-70868571D01*
X83368095Y-70820952D01*
X83463333Y-70773333D01*
X83701428Y-70773333D01*
X83796666Y-70820952D01*
X83844285Y-70868571D01*
X83891904Y-70963809D01*
X83891904Y-71201904D01*
X83844285Y-71297142D01*
X83796666Y-71344761D01*
X83701428Y-71392380D01*
X83463333Y-71392380D01*
X83368095Y-71344761D01*
X83320476Y-71297142D01*
%TO.C,D21*%
X71915714Y-54532380D02*
X71915714Y-53532380D01*
X72153809Y-53532380D01*
X72296666Y-53580000D01*
X72391904Y-53675238D01*
X72439523Y-53770476D01*
X72487142Y-53960952D01*
X72487142Y-54103809D01*
X72439523Y-54294285D01*
X72391904Y-54389523D01*
X72296666Y-54484761D01*
X72153809Y-54532380D01*
X71915714Y-54532380D01*
X72868095Y-53627619D02*
X72915714Y-53580000D01*
X73010952Y-53532380D01*
X73249047Y-53532380D01*
X73344285Y-53580000D01*
X73391904Y-53627619D01*
X73439523Y-53722857D01*
X73439523Y-53818095D01*
X73391904Y-53960952D01*
X72820476Y-54532380D01*
X73439523Y-54532380D01*
X74391904Y-54532380D02*
X73820476Y-54532380D01*
X74106190Y-54532380D02*
X74106190Y-53532380D01*
X74010952Y-53675238D01*
X73915714Y-53770476D01*
X73820476Y-53818095D01*
%TO.C,D12*%
X76805714Y-71362380D02*
X76805714Y-70362380D01*
X77043809Y-70362380D01*
X77186666Y-70410000D01*
X77281904Y-70505238D01*
X77329523Y-70600476D01*
X77377142Y-70790952D01*
X77377142Y-70933809D01*
X77329523Y-71124285D01*
X77281904Y-71219523D01*
X77186666Y-71314761D01*
X77043809Y-71362380D01*
X76805714Y-71362380D01*
X78329523Y-71362380D02*
X77758095Y-71362380D01*
X78043809Y-71362380D02*
X78043809Y-70362380D01*
X77948571Y-70505238D01*
X77853333Y-70600476D01*
X77758095Y-70648095D01*
X78710476Y-70457619D02*
X78758095Y-70410000D01*
X78853333Y-70362380D01*
X79091428Y-70362380D01*
X79186666Y-70410000D01*
X79234285Y-70457619D01*
X79281904Y-70552857D01*
X79281904Y-70648095D01*
X79234285Y-70790952D01*
X78662857Y-71362380D01*
X79281904Y-71362380D01*
%TO.C,R16*%
X85857142Y-59672380D02*
X85523809Y-59196190D01*
X85285714Y-59672380D02*
X85285714Y-58672380D01*
X85666666Y-58672380D01*
X85761904Y-58720000D01*
X85809523Y-58767619D01*
X85857142Y-58862857D01*
X85857142Y-59005714D01*
X85809523Y-59100952D01*
X85761904Y-59148571D01*
X85666666Y-59196190D01*
X85285714Y-59196190D01*
X86809523Y-59672380D02*
X86238095Y-59672380D01*
X86523809Y-59672380D02*
X86523809Y-58672380D01*
X86428571Y-58815238D01*
X86333333Y-58910476D01*
X86238095Y-58958095D01*
X87666666Y-58672380D02*
X87476190Y-58672380D01*
X87380952Y-58720000D01*
X87333333Y-58767619D01*
X87238095Y-58910476D01*
X87190476Y-59100952D01*
X87190476Y-59481904D01*
X87238095Y-59577142D01*
X87285714Y-59624761D01*
X87380952Y-59672380D01*
X87571428Y-59672380D01*
X87666666Y-59624761D01*
X87714285Y-59577142D01*
X87761904Y-59481904D01*
X87761904Y-59243809D01*
X87714285Y-59148571D01*
X87666666Y-59100952D01*
X87571428Y-59053333D01*
X87380952Y-59053333D01*
X87285714Y-59100952D01*
X87238095Y-59148571D01*
X87190476Y-59243809D01*
%TO.C,R24*%
X85857142Y-69932380D02*
X85523809Y-69456190D01*
X85285714Y-69932380D02*
X85285714Y-68932380D01*
X85666666Y-68932380D01*
X85761904Y-68980000D01*
X85809523Y-69027619D01*
X85857142Y-69122857D01*
X85857142Y-69265714D01*
X85809523Y-69360952D01*
X85761904Y-69408571D01*
X85666666Y-69456190D01*
X85285714Y-69456190D01*
X86238095Y-69027619D02*
X86285714Y-68980000D01*
X86380952Y-68932380D01*
X86619047Y-68932380D01*
X86714285Y-68980000D01*
X86761904Y-69027619D01*
X86809523Y-69122857D01*
X86809523Y-69218095D01*
X86761904Y-69360952D01*
X86190476Y-69932380D01*
X86809523Y-69932380D01*
X87666666Y-69265714D02*
X87666666Y-69932380D01*
X87428571Y-68884761D02*
X87190476Y-69599047D01*
X87809523Y-69599047D01*
%TO.C,R4*%
X86323333Y-44242380D02*
X85990000Y-43766190D01*
X85751904Y-44242380D02*
X85751904Y-43242380D01*
X86132857Y-43242380D01*
X86228095Y-43290000D01*
X86275714Y-43337619D01*
X86323333Y-43432857D01*
X86323333Y-43575714D01*
X86275714Y-43670952D01*
X86228095Y-43718571D01*
X86132857Y-43766190D01*
X85751904Y-43766190D01*
X87180476Y-43575714D02*
X87180476Y-44242380D01*
X86942380Y-43194761D02*
X86704285Y-43909047D01*
X87323333Y-43909047D01*
%TO.C,R29*%
X81509523Y-76176380D02*
X81176190Y-75700190D01*
X80938095Y-76176380D02*
X80938095Y-75176380D01*
X81319047Y-75176380D01*
X81414285Y-75224000D01*
X81461904Y-75271619D01*
X81509523Y-75366857D01*
X81509523Y-75509714D01*
X81461904Y-75604952D01*
X81414285Y-75652571D01*
X81319047Y-75700190D01*
X80938095Y-75700190D01*
X81890476Y-75271619D02*
X81938095Y-75224000D01*
X82033333Y-75176380D01*
X82271428Y-75176380D01*
X82366666Y-75224000D01*
X82414285Y-75271619D01*
X82461904Y-75366857D01*
X82461904Y-75462095D01*
X82414285Y-75604952D01*
X81842857Y-76176380D01*
X82461904Y-76176380D01*
X82938095Y-76176380D02*
X83128571Y-76176380D01*
X83223809Y-76128761D01*
X83271428Y-76081142D01*
X83366666Y-75938285D01*
X83414285Y-75747809D01*
X83414285Y-75366857D01*
X83366666Y-75271619D01*
X83319047Y-75224000D01*
X83223809Y-75176380D01*
X83033333Y-75176380D01*
X82938095Y-75224000D01*
X82890476Y-75271619D01*
X82842857Y-75366857D01*
X82842857Y-75604952D01*
X82890476Y-75700190D01*
X82938095Y-75747809D01*
X83033333Y-75795428D01*
X83223809Y-75795428D01*
X83319047Y-75747809D01*
X83366666Y-75700190D01*
X83414285Y-75604952D01*
%TO.C,D19*%
X71885714Y-49452380D02*
X71885714Y-48452380D01*
X72123809Y-48452380D01*
X72266666Y-48500000D01*
X72361904Y-48595238D01*
X72409523Y-48690476D01*
X72457142Y-48880952D01*
X72457142Y-49023809D01*
X72409523Y-49214285D01*
X72361904Y-49309523D01*
X72266666Y-49404761D01*
X72123809Y-49452380D01*
X71885714Y-49452380D01*
X73409523Y-49452380D02*
X72838095Y-49452380D01*
X73123809Y-49452380D02*
X73123809Y-48452380D01*
X73028571Y-48595238D01*
X72933333Y-48690476D01*
X72838095Y-48738095D01*
X73885714Y-49452380D02*
X74076190Y-49452380D01*
X74171428Y-49404761D01*
X74219047Y-49357142D01*
X74314285Y-49214285D01*
X74361904Y-49023809D01*
X74361904Y-48642857D01*
X74314285Y-48547619D01*
X74266666Y-48500000D01*
X74171428Y-48452380D01*
X73980952Y-48452380D01*
X73885714Y-48500000D01*
X73838095Y-48547619D01*
X73790476Y-48642857D01*
X73790476Y-48880952D01*
X73838095Y-48976190D01*
X73885714Y-49023809D01*
X73980952Y-49071428D01*
X74171428Y-49071428D01*
X74266666Y-49023809D01*
X74314285Y-48976190D01*
X74361904Y-48880952D01*
%TO.C,R11*%
X81907142Y-53292380D02*
X81573809Y-52816190D01*
X81335714Y-53292380D02*
X81335714Y-52292380D01*
X81716666Y-52292380D01*
X81811904Y-52340000D01*
X81859523Y-52387619D01*
X81907142Y-52482857D01*
X81907142Y-52625714D01*
X81859523Y-52720952D01*
X81811904Y-52768571D01*
X81716666Y-52816190D01*
X81335714Y-52816190D01*
X82859523Y-53292380D02*
X82288095Y-53292380D01*
X82573809Y-53292380D02*
X82573809Y-52292380D01*
X82478571Y-52435238D01*
X82383333Y-52530476D01*
X82288095Y-52578095D01*
X83811904Y-53292380D02*
X83240476Y-53292380D01*
X83526190Y-53292380D02*
X83526190Y-52292380D01*
X83430952Y-52435238D01*
X83335714Y-52530476D01*
X83240476Y-52578095D01*
%TO.C,R36*%
X114822380Y-47530357D02*
X114346190Y-47863690D01*
X114822380Y-48101785D02*
X113822380Y-48101785D01*
X113822380Y-47720833D01*
X113870000Y-47625595D01*
X113917619Y-47577976D01*
X114012857Y-47530357D01*
X114155714Y-47530357D01*
X114250952Y-47577976D01*
X114298571Y-47625595D01*
X114346190Y-47720833D01*
X114346190Y-48101785D01*
X113822380Y-47197023D02*
X113822380Y-46577976D01*
X114203333Y-46911309D01*
X114203333Y-46768452D01*
X114250952Y-46673214D01*
X114298571Y-46625595D01*
X114393809Y-46577976D01*
X114631904Y-46577976D01*
X114727142Y-46625595D01*
X114774761Y-46673214D01*
X114822380Y-46768452D01*
X114822380Y-47054166D01*
X114774761Y-47149404D01*
X114727142Y-47197023D01*
X113822380Y-45720833D02*
X113822380Y-45911309D01*
X113870000Y-46006547D01*
X113917619Y-46054166D01*
X114060476Y-46149404D01*
X114250952Y-46197023D01*
X114631904Y-46197023D01*
X114727142Y-46149404D01*
X114774761Y-46101785D01*
X114822380Y-46006547D01*
X114822380Y-45816071D01*
X114774761Y-45720833D01*
X114727142Y-45673214D01*
X114631904Y-45625595D01*
X114393809Y-45625595D01*
X114298571Y-45673214D01*
X114250952Y-45720833D01*
X114203333Y-45816071D01*
X114203333Y-46006547D01*
X114250952Y-46101785D01*
X114298571Y-46149404D01*
X114393809Y-46197023D01*
%TO.C,R26*%
X85857142Y-72502380D02*
X85523809Y-72026190D01*
X85285714Y-72502380D02*
X85285714Y-71502380D01*
X85666666Y-71502380D01*
X85761904Y-71550000D01*
X85809523Y-71597619D01*
X85857142Y-71692857D01*
X85857142Y-71835714D01*
X85809523Y-71930952D01*
X85761904Y-71978571D01*
X85666666Y-72026190D01*
X85285714Y-72026190D01*
X86238095Y-71597619D02*
X86285714Y-71550000D01*
X86380952Y-71502380D01*
X86619047Y-71502380D01*
X86714285Y-71550000D01*
X86761904Y-71597619D01*
X86809523Y-71692857D01*
X86809523Y-71788095D01*
X86761904Y-71930952D01*
X86190476Y-72502380D01*
X86809523Y-72502380D01*
X87666666Y-71502380D02*
X87476190Y-71502380D01*
X87380952Y-71550000D01*
X87333333Y-71597619D01*
X87238095Y-71740476D01*
X87190476Y-71930952D01*
X87190476Y-72311904D01*
X87238095Y-72407142D01*
X87285714Y-72454761D01*
X87380952Y-72502380D01*
X87571428Y-72502380D01*
X87666666Y-72454761D01*
X87714285Y-72407142D01*
X87761904Y-72311904D01*
X87761904Y-72073809D01*
X87714285Y-71978571D01*
X87666666Y-71930952D01*
X87571428Y-71883333D01*
X87380952Y-71883333D01*
X87285714Y-71930952D01*
X87238095Y-71978571D01*
X87190476Y-72073809D01*
%TO.C,D16*%
X71775714Y-41732380D02*
X71775714Y-40732380D01*
X72013809Y-40732380D01*
X72156666Y-40780000D01*
X72251904Y-40875238D01*
X72299523Y-40970476D01*
X72347142Y-41160952D01*
X72347142Y-41303809D01*
X72299523Y-41494285D01*
X72251904Y-41589523D01*
X72156666Y-41684761D01*
X72013809Y-41732380D01*
X71775714Y-41732380D01*
X73299523Y-41732380D02*
X72728095Y-41732380D01*
X73013809Y-41732380D02*
X73013809Y-40732380D01*
X72918571Y-40875238D01*
X72823333Y-40970476D01*
X72728095Y-41018095D01*
X74156666Y-40732380D02*
X73966190Y-40732380D01*
X73870952Y-40780000D01*
X73823333Y-40827619D01*
X73728095Y-40970476D01*
X73680476Y-41160952D01*
X73680476Y-41541904D01*
X73728095Y-41637142D01*
X73775714Y-41684761D01*
X73870952Y-41732380D01*
X74061428Y-41732380D01*
X74156666Y-41684761D01*
X74204285Y-41637142D01*
X74251904Y-41541904D01*
X74251904Y-41303809D01*
X74204285Y-41208571D01*
X74156666Y-41160952D01*
X74061428Y-41113333D01*
X73870952Y-41113333D01*
X73775714Y-41160952D01*
X73728095Y-41208571D01*
X73680476Y-41303809D01*
%TO.C,R17*%
X81887142Y-60962380D02*
X81553809Y-60486190D01*
X81315714Y-60962380D02*
X81315714Y-59962380D01*
X81696666Y-59962380D01*
X81791904Y-60010000D01*
X81839523Y-60057619D01*
X81887142Y-60152857D01*
X81887142Y-60295714D01*
X81839523Y-60390952D01*
X81791904Y-60438571D01*
X81696666Y-60486190D01*
X81315714Y-60486190D01*
X82839523Y-60962380D02*
X82268095Y-60962380D01*
X82553809Y-60962380D02*
X82553809Y-59962380D01*
X82458571Y-60105238D01*
X82363333Y-60200476D01*
X82268095Y-60248095D01*
X83172857Y-59962380D02*
X83839523Y-59962380D01*
X83410952Y-60962380D01*
%TO.C,R13*%
X81837142Y-55832380D02*
X81503809Y-55356190D01*
X81265714Y-55832380D02*
X81265714Y-54832380D01*
X81646666Y-54832380D01*
X81741904Y-54880000D01*
X81789523Y-54927619D01*
X81837142Y-55022857D01*
X81837142Y-55165714D01*
X81789523Y-55260952D01*
X81741904Y-55308571D01*
X81646666Y-55356190D01*
X81265714Y-55356190D01*
X82789523Y-55832380D02*
X82218095Y-55832380D01*
X82503809Y-55832380D02*
X82503809Y-54832380D01*
X82408571Y-54975238D01*
X82313333Y-55070476D01*
X82218095Y-55118095D01*
X83122857Y-54832380D02*
X83741904Y-54832380D01*
X83408571Y-55213333D01*
X83551428Y-55213333D01*
X83646666Y-55260952D01*
X83694285Y-55308571D01*
X83741904Y-55403809D01*
X83741904Y-55641904D01*
X83694285Y-55737142D01*
X83646666Y-55784761D01*
X83551428Y-55832380D01*
X83265714Y-55832380D01*
X83170476Y-55784761D01*
X83122857Y-55737142D01*
%TO.C,R37*%
X119912380Y-47482857D02*
X119436190Y-47816190D01*
X119912380Y-48054285D02*
X118912380Y-48054285D01*
X118912380Y-47673333D01*
X118960000Y-47578095D01*
X119007619Y-47530476D01*
X119102857Y-47482857D01*
X119245714Y-47482857D01*
X119340952Y-47530476D01*
X119388571Y-47578095D01*
X119436190Y-47673333D01*
X119436190Y-48054285D01*
X118912380Y-47149523D02*
X118912380Y-46530476D01*
X119293333Y-46863809D01*
X119293333Y-46720952D01*
X119340952Y-46625714D01*
X119388571Y-46578095D01*
X119483809Y-46530476D01*
X119721904Y-46530476D01*
X119817142Y-46578095D01*
X119864761Y-46625714D01*
X119912380Y-46720952D01*
X119912380Y-47006666D01*
X119864761Y-47101904D01*
X119817142Y-47149523D01*
X118912380Y-46197142D02*
X118912380Y-45530476D01*
X119912380Y-45959047D01*
%TO.C,D5*%
X77281904Y-53262380D02*
X77281904Y-52262380D01*
X77520000Y-52262380D01*
X77662857Y-52310000D01*
X77758095Y-52405238D01*
X77805714Y-52500476D01*
X77853333Y-52690952D01*
X77853333Y-52833809D01*
X77805714Y-53024285D01*
X77758095Y-53119523D01*
X77662857Y-53214761D01*
X77520000Y-53262380D01*
X77281904Y-53262380D01*
X78758095Y-52262380D02*
X78281904Y-52262380D01*
X78234285Y-52738571D01*
X78281904Y-52690952D01*
X78377142Y-52643333D01*
X78615238Y-52643333D01*
X78710476Y-52690952D01*
X78758095Y-52738571D01*
X78805714Y-52833809D01*
X78805714Y-53071904D01*
X78758095Y-53167142D01*
X78710476Y-53214761D01*
X78615238Y-53262380D01*
X78377142Y-53262380D01*
X78281904Y-53214761D01*
X78234285Y-53167142D01*
%TO.C,R3*%
X82403333Y-43062380D02*
X82070000Y-42586190D01*
X81831904Y-43062380D02*
X81831904Y-42062380D01*
X82212857Y-42062380D01*
X82308095Y-42110000D01*
X82355714Y-42157619D01*
X82403333Y-42252857D01*
X82403333Y-42395714D01*
X82355714Y-42490952D01*
X82308095Y-42538571D01*
X82212857Y-42586190D01*
X81831904Y-42586190D01*
X82736666Y-42062380D02*
X83355714Y-42062380D01*
X83022380Y-42443333D01*
X83165238Y-42443333D01*
X83260476Y-42490952D01*
X83308095Y-42538571D01*
X83355714Y-42633809D01*
X83355714Y-42871904D01*
X83308095Y-42967142D01*
X83260476Y-43014761D01*
X83165238Y-43062380D01*
X82879523Y-43062380D01*
X82784285Y-43014761D01*
X82736666Y-42967142D01*
%TO.C,D23*%
X71885714Y-59862380D02*
X71885714Y-58862380D01*
X72123809Y-58862380D01*
X72266666Y-58910000D01*
X72361904Y-59005238D01*
X72409523Y-59100476D01*
X72457142Y-59290952D01*
X72457142Y-59433809D01*
X72409523Y-59624285D01*
X72361904Y-59719523D01*
X72266666Y-59814761D01*
X72123809Y-59862380D01*
X71885714Y-59862380D01*
X72838095Y-58957619D02*
X72885714Y-58910000D01*
X72980952Y-58862380D01*
X73219047Y-58862380D01*
X73314285Y-58910000D01*
X73361904Y-58957619D01*
X73409523Y-59052857D01*
X73409523Y-59148095D01*
X73361904Y-59290952D01*
X72790476Y-59862380D01*
X73409523Y-59862380D01*
X73742857Y-58862380D02*
X74361904Y-58862380D01*
X74028571Y-59243333D01*
X74171428Y-59243333D01*
X74266666Y-59290952D01*
X74314285Y-59338571D01*
X74361904Y-59433809D01*
X74361904Y-59671904D01*
X74314285Y-59767142D01*
X74266666Y-59814761D01*
X74171428Y-59862380D01*
X73885714Y-59862380D01*
X73790476Y-59814761D01*
X73742857Y-59767142D01*
%TO.C,R18*%
X85867142Y-62312380D02*
X85533809Y-61836190D01*
X85295714Y-62312380D02*
X85295714Y-61312380D01*
X85676666Y-61312380D01*
X85771904Y-61360000D01*
X85819523Y-61407619D01*
X85867142Y-61502857D01*
X85867142Y-61645714D01*
X85819523Y-61740952D01*
X85771904Y-61788571D01*
X85676666Y-61836190D01*
X85295714Y-61836190D01*
X86819523Y-62312380D02*
X86248095Y-62312380D01*
X86533809Y-62312380D02*
X86533809Y-61312380D01*
X86438571Y-61455238D01*
X86343333Y-61550476D01*
X86248095Y-61598095D01*
X87390952Y-61740952D02*
X87295714Y-61693333D01*
X87248095Y-61645714D01*
X87200476Y-61550476D01*
X87200476Y-61502857D01*
X87248095Y-61407619D01*
X87295714Y-61360000D01*
X87390952Y-61312380D01*
X87581428Y-61312380D01*
X87676666Y-61360000D01*
X87724285Y-61407619D01*
X87771904Y-61502857D01*
X87771904Y-61550476D01*
X87724285Y-61645714D01*
X87676666Y-61693333D01*
X87581428Y-61740952D01*
X87390952Y-61740952D01*
X87295714Y-61788571D01*
X87248095Y-61836190D01*
X87200476Y-61931428D01*
X87200476Y-62121904D01*
X87248095Y-62217142D01*
X87295714Y-62264761D01*
X87390952Y-62312380D01*
X87581428Y-62312380D01*
X87676666Y-62264761D01*
X87724285Y-62217142D01*
X87771904Y-62121904D01*
X87771904Y-61931428D01*
X87724285Y-61836190D01*
X87676666Y-61788571D01*
X87581428Y-61740952D01*
%TO.C,D13*%
X76635714Y-73822380D02*
X76635714Y-72822380D01*
X76873809Y-72822380D01*
X77016666Y-72870000D01*
X77111904Y-72965238D01*
X77159523Y-73060476D01*
X77207142Y-73250952D01*
X77207142Y-73393809D01*
X77159523Y-73584285D01*
X77111904Y-73679523D01*
X77016666Y-73774761D01*
X76873809Y-73822380D01*
X76635714Y-73822380D01*
X78159523Y-73822380D02*
X77588095Y-73822380D01*
X77873809Y-73822380D02*
X77873809Y-72822380D01*
X77778571Y-72965238D01*
X77683333Y-73060476D01*
X77588095Y-73108095D01*
X78492857Y-72822380D02*
X79111904Y-72822380D01*
X78778571Y-73203333D01*
X78921428Y-73203333D01*
X79016666Y-73250952D01*
X79064285Y-73298571D01*
X79111904Y-73393809D01*
X79111904Y-73631904D01*
X79064285Y-73727142D01*
X79016666Y-73774761D01*
X78921428Y-73822380D01*
X78635714Y-73822380D01*
X78540476Y-73774761D01*
X78492857Y-73727142D01*
%TO.C,D31*%
X76655714Y-78962380D02*
X76655714Y-77962380D01*
X76893809Y-77962380D01*
X77036666Y-78010000D01*
X77131904Y-78105238D01*
X77179523Y-78200476D01*
X77227142Y-78390952D01*
X77227142Y-78533809D01*
X77179523Y-78724285D01*
X77131904Y-78819523D01*
X77036666Y-78914761D01*
X76893809Y-78962380D01*
X76655714Y-78962380D01*
X77560476Y-77962380D02*
X78179523Y-77962380D01*
X77846190Y-78343333D01*
X77989047Y-78343333D01*
X78084285Y-78390952D01*
X78131904Y-78438571D01*
X78179523Y-78533809D01*
X78179523Y-78771904D01*
X78131904Y-78867142D01*
X78084285Y-78914761D01*
X77989047Y-78962380D01*
X77703333Y-78962380D01*
X77608095Y-78914761D01*
X77560476Y-78867142D01*
X79131904Y-78962380D02*
X78560476Y-78962380D01*
X78846190Y-78962380D02*
X78846190Y-77962380D01*
X78750952Y-78105238D01*
X78655714Y-78200476D01*
X78560476Y-78248095D01*
%TO.C,R34*%
X72709523Y-37022380D02*
X72376190Y-36546190D01*
X72138095Y-37022380D02*
X72138095Y-36022380D01*
X72519047Y-36022380D01*
X72614285Y-36070000D01*
X72661904Y-36117619D01*
X72709523Y-36212857D01*
X72709523Y-36355714D01*
X72661904Y-36450952D01*
X72614285Y-36498571D01*
X72519047Y-36546190D01*
X72138095Y-36546190D01*
X73042857Y-36022380D02*
X73661904Y-36022380D01*
X73328571Y-36403333D01*
X73471428Y-36403333D01*
X73566666Y-36450952D01*
X73614285Y-36498571D01*
X73661904Y-36593809D01*
X73661904Y-36831904D01*
X73614285Y-36927142D01*
X73566666Y-36974761D01*
X73471428Y-37022380D01*
X73185714Y-37022380D01*
X73090476Y-36974761D01*
X73042857Y-36927142D01*
X74519047Y-36355714D02*
X74519047Y-37022380D01*
X74280952Y-35974761D02*
X74042857Y-36689047D01*
X74661904Y-36689047D01*
%TO.C,D3*%
X77211904Y-48202380D02*
X77211904Y-47202380D01*
X77450000Y-47202380D01*
X77592857Y-47250000D01*
X77688095Y-47345238D01*
X77735714Y-47440476D01*
X77783333Y-47630952D01*
X77783333Y-47773809D01*
X77735714Y-47964285D01*
X77688095Y-48059523D01*
X77592857Y-48154761D01*
X77450000Y-48202380D01*
X77211904Y-48202380D01*
X78116666Y-47202380D02*
X78735714Y-47202380D01*
X78402380Y-47583333D01*
X78545238Y-47583333D01*
X78640476Y-47630952D01*
X78688095Y-47678571D01*
X78735714Y-47773809D01*
X78735714Y-48011904D01*
X78688095Y-48107142D01*
X78640476Y-48154761D01*
X78545238Y-48202380D01*
X78259523Y-48202380D01*
X78164285Y-48154761D01*
X78116666Y-48107142D01*
%TO.C,D9*%
X77241904Y-63672380D02*
X77241904Y-62672380D01*
X77480000Y-62672380D01*
X77622857Y-62720000D01*
X77718095Y-62815238D01*
X77765714Y-62910476D01*
X77813333Y-63100952D01*
X77813333Y-63243809D01*
X77765714Y-63434285D01*
X77718095Y-63529523D01*
X77622857Y-63624761D01*
X77480000Y-63672380D01*
X77241904Y-63672380D01*
X78289523Y-63672380D02*
X78480000Y-63672380D01*
X78575238Y-63624761D01*
X78622857Y-63577142D01*
X78718095Y-63434285D01*
X78765714Y-63243809D01*
X78765714Y-62862857D01*
X78718095Y-62767619D01*
X78670476Y-62720000D01*
X78575238Y-62672380D01*
X78384761Y-62672380D01*
X78289523Y-62720000D01*
X78241904Y-62767619D01*
X78194285Y-62862857D01*
X78194285Y-63100952D01*
X78241904Y-63196190D01*
X78289523Y-63243809D01*
X78384761Y-63291428D01*
X78575238Y-63291428D01*
X78670476Y-63243809D01*
X78718095Y-63196190D01*
X78765714Y-63100952D01*
%TO.C,D32*%
X88935714Y-40292380D02*
X88935714Y-39292380D01*
X89173809Y-39292380D01*
X89316666Y-39340000D01*
X89411904Y-39435238D01*
X89459523Y-39530476D01*
X89507142Y-39720952D01*
X89507142Y-39863809D01*
X89459523Y-40054285D01*
X89411904Y-40149523D01*
X89316666Y-40244761D01*
X89173809Y-40292380D01*
X88935714Y-40292380D01*
X89840476Y-39292380D02*
X90459523Y-39292380D01*
X90126190Y-39673333D01*
X90269047Y-39673333D01*
X90364285Y-39720952D01*
X90411904Y-39768571D01*
X90459523Y-39863809D01*
X90459523Y-40101904D01*
X90411904Y-40197142D01*
X90364285Y-40244761D01*
X90269047Y-40292380D01*
X89983333Y-40292380D01*
X89888095Y-40244761D01*
X89840476Y-40197142D01*
X90840476Y-39387619D02*
X90888095Y-39340000D01*
X90983333Y-39292380D01*
X91221428Y-39292380D01*
X91316666Y-39340000D01*
X91364285Y-39387619D01*
X91411904Y-39482857D01*
X91411904Y-39578095D01*
X91364285Y-39720952D01*
X90792857Y-40292380D01*
X91411904Y-40292380D01*
%TO.C,R14*%
X85867142Y-57082380D02*
X85533809Y-56606190D01*
X85295714Y-57082380D02*
X85295714Y-56082380D01*
X85676666Y-56082380D01*
X85771904Y-56130000D01*
X85819523Y-56177619D01*
X85867142Y-56272857D01*
X85867142Y-56415714D01*
X85819523Y-56510952D01*
X85771904Y-56558571D01*
X85676666Y-56606190D01*
X85295714Y-56606190D01*
X86819523Y-57082380D02*
X86248095Y-57082380D01*
X86533809Y-57082380D02*
X86533809Y-56082380D01*
X86438571Y-56225238D01*
X86343333Y-56320476D01*
X86248095Y-56368095D01*
X87676666Y-56415714D02*
X87676666Y-57082380D01*
X87438571Y-56034761D02*
X87200476Y-56749047D01*
X87819523Y-56749047D01*
%TO.C,R9*%
X82463333Y-50742380D02*
X82130000Y-50266190D01*
X81891904Y-50742380D02*
X81891904Y-49742380D01*
X82272857Y-49742380D01*
X82368095Y-49790000D01*
X82415714Y-49837619D01*
X82463333Y-49932857D01*
X82463333Y-50075714D01*
X82415714Y-50170952D01*
X82368095Y-50218571D01*
X82272857Y-50266190D01*
X81891904Y-50266190D01*
X82939523Y-50742380D02*
X83130000Y-50742380D01*
X83225238Y-50694761D01*
X83272857Y-50647142D01*
X83368095Y-50504285D01*
X83415714Y-50313809D01*
X83415714Y-49932857D01*
X83368095Y-49837619D01*
X83320476Y-49790000D01*
X83225238Y-49742380D01*
X83034761Y-49742380D01*
X82939523Y-49790000D01*
X82891904Y-49837619D01*
X82844285Y-49932857D01*
X82844285Y-50170952D01*
X82891904Y-50266190D01*
X82939523Y-50313809D01*
X83034761Y-50361428D01*
X83225238Y-50361428D01*
X83320476Y-50313809D01*
X83368095Y-50266190D01*
X83415714Y-50170952D01*
%TO.C,R12*%
X85827142Y-54562380D02*
X85493809Y-54086190D01*
X85255714Y-54562380D02*
X85255714Y-53562380D01*
X85636666Y-53562380D01*
X85731904Y-53610000D01*
X85779523Y-53657619D01*
X85827142Y-53752857D01*
X85827142Y-53895714D01*
X85779523Y-53990952D01*
X85731904Y-54038571D01*
X85636666Y-54086190D01*
X85255714Y-54086190D01*
X86779523Y-54562380D02*
X86208095Y-54562380D01*
X86493809Y-54562380D02*
X86493809Y-53562380D01*
X86398571Y-53705238D01*
X86303333Y-53800476D01*
X86208095Y-53848095D01*
X87160476Y-53657619D02*
X87208095Y-53610000D01*
X87303333Y-53562380D01*
X87541428Y-53562380D01*
X87636666Y-53610000D01*
X87684285Y-53657619D01*
X87731904Y-53752857D01*
X87731904Y-53848095D01*
X87684285Y-53990952D01*
X87112857Y-54562380D01*
X87731904Y-54562380D01*
%TO.C,R20*%
X85937142Y-64832380D02*
X85603809Y-64356190D01*
X85365714Y-64832380D02*
X85365714Y-63832380D01*
X85746666Y-63832380D01*
X85841904Y-63880000D01*
X85889523Y-63927619D01*
X85937142Y-64022857D01*
X85937142Y-64165714D01*
X85889523Y-64260952D01*
X85841904Y-64308571D01*
X85746666Y-64356190D01*
X85365714Y-64356190D01*
X86318095Y-63927619D02*
X86365714Y-63880000D01*
X86460952Y-63832380D01*
X86699047Y-63832380D01*
X86794285Y-63880000D01*
X86841904Y-63927619D01*
X86889523Y-64022857D01*
X86889523Y-64118095D01*
X86841904Y-64260952D01*
X86270476Y-64832380D01*
X86889523Y-64832380D01*
X87508571Y-63832380D02*
X87603809Y-63832380D01*
X87699047Y-63880000D01*
X87746666Y-63927619D01*
X87794285Y-64022857D01*
X87841904Y-64213333D01*
X87841904Y-64451428D01*
X87794285Y-64641904D01*
X87746666Y-64737142D01*
X87699047Y-64784761D01*
X87603809Y-64832380D01*
X87508571Y-64832380D01*
X87413333Y-64784761D01*
X87365714Y-64737142D01*
X87318095Y-64641904D01*
X87270476Y-64451428D01*
X87270476Y-64213333D01*
X87318095Y-64022857D01*
X87365714Y-63927619D01*
X87413333Y-63880000D01*
X87508571Y-63832380D01*
%TO.C,R33*%
X77357142Y-37022380D02*
X77023809Y-36546190D01*
X76785714Y-37022380D02*
X76785714Y-36022380D01*
X77166666Y-36022380D01*
X77261904Y-36070000D01*
X77309523Y-36117619D01*
X77357142Y-36212857D01*
X77357142Y-36355714D01*
X77309523Y-36450952D01*
X77261904Y-36498571D01*
X77166666Y-36546190D01*
X76785714Y-36546190D01*
X77690476Y-36022380D02*
X78309523Y-36022380D01*
X77976190Y-36403333D01*
X78119047Y-36403333D01*
X78214285Y-36450952D01*
X78261904Y-36498571D01*
X78309523Y-36593809D01*
X78309523Y-36831904D01*
X78261904Y-36927142D01*
X78214285Y-36974761D01*
X78119047Y-37022380D01*
X77833333Y-37022380D01*
X77738095Y-36974761D01*
X77690476Y-36927142D01*
X78642857Y-36022380D02*
X79261904Y-36022380D01*
X78928571Y-36403333D01*
X79071428Y-36403333D01*
X79166666Y-36450952D01*
X79214285Y-36498571D01*
X79261904Y-36593809D01*
X79261904Y-36831904D01*
X79214285Y-36927142D01*
X79166666Y-36974761D01*
X79071428Y-37022380D01*
X78785714Y-37022380D01*
X78690476Y-36974761D01*
X78642857Y-36927142D01*
%TO.C,D15*%
X71955714Y-80322380D02*
X71955714Y-79322380D01*
X72193809Y-79322380D01*
X72336666Y-79370000D01*
X72431904Y-79465238D01*
X72479523Y-79560476D01*
X72527142Y-79750952D01*
X72527142Y-79893809D01*
X72479523Y-80084285D01*
X72431904Y-80179523D01*
X72336666Y-80274761D01*
X72193809Y-80322380D01*
X71955714Y-80322380D01*
X73479523Y-80322380D02*
X72908095Y-80322380D01*
X73193809Y-80322380D02*
X73193809Y-79322380D01*
X73098571Y-79465238D01*
X73003333Y-79560476D01*
X72908095Y-79608095D01*
X74384285Y-79322380D02*
X73908095Y-79322380D01*
X73860476Y-79798571D01*
X73908095Y-79750952D01*
X74003333Y-79703333D01*
X74241428Y-79703333D01*
X74336666Y-79750952D01*
X74384285Y-79798571D01*
X74431904Y-79893809D01*
X74431904Y-80131904D01*
X74384285Y-80227142D01*
X74336666Y-80274761D01*
X74241428Y-80322380D01*
X74003333Y-80322380D01*
X73908095Y-80274761D01*
X73860476Y-80227142D01*
%TO.C,D11*%
X76695714Y-68762380D02*
X76695714Y-67762380D01*
X76933809Y-67762380D01*
X77076666Y-67810000D01*
X77171904Y-67905238D01*
X77219523Y-68000476D01*
X77267142Y-68190952D01*
X77267142Y-68333809D01*
X77219523Y-68524285D01*
X77171904Y-68619523D01*
X77076666Y-68714761D01*
X76933809Y-68762380D01*
X76695714Y-68762380D01*
X78219523Y-68762380D02*
X77648095Y-68762380D01*
X77933809Y-68762380D02*
X77933809Y-67762380D01*
X77838571Y-67905238D01*
X77743333Y-68000476D01*
X77648095Y-68048095D01*
X79171904Y-68762380D02*
X78600476Y-68762380D01*
X78886190Y-68762380D02*
X78886190Y-67762380D01*
X78790952Y-67905238D01*
X78695714Y-68000476D01*
X78600476Y-68048095D01*
%TO.C,R10*%
X85847142Y-52092380D02*
X85513809Y-51616190D01*
X85275714Y-52092380D02*
X85275714Y-51092380D01*
X85656666Y-51092380D01*
X85751904Y-51140000D01*
X85799523Y-51187619D01*
X85847142Y-51282857D01*
X85847142Y-51425714D01*
X85799523Y-51520952D01*
X85751904Y-51568571D01*
X85656666Y-51616190D01*
X85275714Y-51616190D01*
X86799523Y-52092380D02*
X86228095Y-52092380D01*
X86513809Y-52092380D02*
X86513809Y-51092380D01*
X86418571Y-51235238D01*
X86323333Y-51330476D01*
X86228095Y-51378095D01*
X87418571Y-51092380D02*
X87513809Y-51092380D01*
X87609047Y-51140000D01*
X87656666Y-51187619D01*
X87704285Y-51282857D01*
X87751904Y-51473333D01*
X87751904Y-51711428D01*
X87704285Y-51901904D01*
X87656666Y-51997142D01*
X87609047Y-52044761D01*
X87513809Y-52092380D01*
X87418571Y-52092380D01*
X87323333Y-52044761D01*
X87275714Y-51997142D01*
X87228095Y-51901904D01*
X87180476Y-51711428D01*
X87180476Y-51473333D01*
X87228095Y-51282857D01*
X87275714Y-51187619D01*
X87323333Y-51140000D01*
X87418571Y-51092380D01*
%TO.C,R8*%
X86323333Y-49432380D02*
X85990000Y-48956190D01*
X85751904Y-49432380D02*
X85751904Y-48432380D01*
X86132857Y-48432380D01*
X86228095Y-48480000D01*
X86275714Y-48527619D01*
X86323333Y-48622857D01*
X86323333Y-48765714D01*
X86275714Y-48860952D01*
X86228095Y-48908571D01*
X86132857Y-48956190D01*
X85751904Y-48956190D01*
X86894761Y-48860952D02*
X86799523Y-48813333D01*
X86751904Y-48765714D01*
X86704285Y-48670476D01*
X86704285Y-48622857D01*
X86751904Y-48527619D01*
X86799523Y-48480000D01*
X86894761Y-48432380D01*
X87085238Y-48432380D01*
X87180476Y-48480000D01*
X87228095Y-48527619D01*
X87275714Y-48622857D01*
X87275714Y-48670476D01*
X87228095Y-48765714D01*
X87180476Y-48813333D01*
X87085238Y-48860952D01*
X86894761Y-48860952D01*
X86799523Y-48908571D01*
X86751904Y-48956190D01*
X86704285Y-49051428D01*
X86704285Y-49241904D01*
X86751904Y-49337142D01*
X86799523Y-49384761D01*
X86894761Y-49432380D01*
X87085238Y-49432380D01*
X87180476Y-49384761D01*
X87228095Y-49337142D01*
X87275714Y-49241904D01*
X87275714Y-49051428D01*
X87228095Y-48956190D01*
X87180476Y-48908571D01*
X87085238Y-48860952D01*
D11*
%TO.C,U1*%
X92070000Y-68230000D02*
G75*
G03*
X92070000Y-68230000I-100000J0D01*
G01*
D12*
X91790000Y-66200000D02*
X91790000Y-53800000D01*
X100210000Y-66200000D02*
X100210000Y-53800000D01*
D13*
%TO.C,R35*%
X111422500Y-48932776D02*
X111422500Y-49442224D01*
X110377500Y-48932776D02*
X110377500Y-49442224D01*
D12*
%TO.C,U3*%
X113835000Y-69735000D02*
X106335000Y-69735000D01*
X113835000Y-51835000D02*
X106335000Y-51835000D01*
D11*
X116690000Y-69640000D02*
G75*
G03*
X116690000Y-69640000I-100000J0D01*
G01*
D13*
%TO.C,D6*%
X76100000Y-56207100D02*
X79250000Y-56207100D01*
X76100000Y-54507100D02*
X76100000Y-56207100D01*
X76100000Y-54507100D02*
X79250000Y-54507100D01*
%TO.C,D22*%
X71275000Y-55777600D02*
X74425000Y-55777600D01*
X71275000Y-57477600D02*
X74425000Y-57477600D01*
X71275000Y-55777600D02*
X71275000Y-57477600D01*
%TO.C,D25*%
X75075000Y-65177600D02*
X71925000Y-65177600D01*
X75075000Y-65177600D02*
X75075000Y-63477600D01*
X75075000Y-63477600D02*
X71925000Y-63477600D01*
%TO.C,C2*%
X108320000Y-49333767D02*
X108320000Y-49041233D01*
X109340000Y-49333767D02*
X109340000Y-49041233D01*
%TO.C,D24*%
X75200000Y-62610900D02*
X72050000Y-62610900D01*
X75200000Y-60910900D02*
X72050000Y-60910900D01*
X75200000Y-62610900D02*
X75200000Y-60910900D01*
%TO.C,D1*%
X76100000Y-43350000D02*
X79250000Y-43350000D01*
X76100000Y-41650000D02*
X76100000Y-43350000D01*
X76100000Y-41650000D02*
X79250000Y-41650000D01*
%TO.C,R1*%
X82245276Y-41752500D02*
X82754724Y-41752500D01*
X82245276Y-40707500D02*
X82754724Y-40707500D01*
%TO.C,D20*%
X75075000Y-52344300D02*
X71925000Y-52344300D01*
X75075000Y-52344300D02*
X75075000Y-50644300D01*
X75075000Y-50644300D02*
X71925000Y-50644300D01*
%TO.C,D26*%
X75075000Y-67744300D02*
X71925000Y-67744300D01*
X75075000Y-67744300D02*
X75075000Y-66044300D01*
X75075000Y-66044300D02*
X71925000Y-66044300D01*
%TO.C,D30*%
X79900000Y-76778600D02*
X79900000Y-75078600D01*
X79900000Y-76778600D02*
X76750000Y-76778600D01*
X79900000Y-75078600D02*
X76750000Y-75078600D01*
%TO.C,C1*%
X96850000Y-39036267D02*
X96850000Y-38743733D01*
X95830000Y-39036267D02*
X95830000Y-38743733D01*
%TO.C,D7*%
X76100000Y-57078600D02*
X79250000Y-57078600D01*
X76100000Y-57078600D02*
X76100000Y-58778600D01*
X76100000Y-58778600D02*
X79250000Y-58778600D01*
%TO.C,D29*%
X75075000Y-75444300D02*
X75075000Y-73744300D01*
X75075000Y-73744300D02*
X71925000Y-73744300D01*
X75075000Y-75444300D02*
X71925000Y-75444300D01*
%TO.C,D10*%
X79900000Y-64792900D02*
X76750000Y-64792900D01*
X79900000Y-66492900D02*
X79900000Y-64792900D01*
X79900000Y-66492900D02*
X76750000Y-66492900D01*
%TO.C,R6*%
X86267776Y-48165400D02*
X86777224Y-48165400D01*
X86267776Y-47120400D02*
X86777224Y-47120400D01*
%TO.C,D28*%
X71275000Y-71177600D02*
X71275000Y-72877600D01*
X71275000Y-72877600D02*
X74425000Y-72877600D01*
X71275000Y-71177600D02*
X74425000Y-71177600D01*
%TO.C,R2*%
X86267776Y-43022500D02*
X86777224Y-43022500D01*
X86267776Y-41977500D02*
X86777224Y-41977500D01*
%TO.C,R15*%
X82245276Y-59714500D02*
X82754724Y-59714500D01*
X82245276Y-58669500D02*
X82754724Y-58669500D01*
%TO.C,R30*%
X86267776Y-77977500D02*
X86777224Y-77977500D01*
X86267776Y-79022500D02*
X86777224Y-79022500D01*
%TO.C,R28*%
X86267776Y-75406100D02*
X86777224Y-75406100D01*
X86267776Y-76451100D02*
X86777224Y-76451100D01*
%TO.C,R19*%
X82245276Y-64846500D02*
X82754724Y-64846500D01*
X82245276Y-63801500D02*
X82754724Y-63801500D01*
%TO.C,R7*%
X82245276Y-49450500D02*
X82754724Y-49450500D01*
X82245276Y-48405500D02*
X82754724Y-48405500D01*
%TO.C,R5*%
X82245276Y-46884500D02*
X82754724Y-46884500D01*
X82245276Y-45839500D02*
X82754724Y-45839500D01*
%TO.C,R23*%
X82245276Y-68933500D02*
X82754724Y-68933500D01*
X82245276Y-69978500D02*
X82754724Y-69978500D01*
%TO.C,D8*%
X79900000Y-59650000D02*
X76750000Y-59650000D01*
X79900000Y-61350000D02*
X79900000Y-59650000D01*
X79900000Y-61350000D02*
X76750000Y-61350000D01*
%TO.C,R27*%
X82245276Y-75110500D02*
X82754724Y-75110500D01*
X82245276Y-74065500D02*
X82754724Y-74065500D01*
%TO.C,D18*%
X75075000Y-47210900D02*
X75075000Y-45510900D01*
X75075000Y-45510900D02*
X71925000Y-45510900D01*
X75075000Y-47210900D02*
X71925000Y-47210900D01*
%TO.C,D17*%
X71275000Y-44644300D02*
X74425000Y-44644300D01*
X71275000Y-42944300D02*
X74425000Y-42944300D01*
X71275000Y-42944300D02*
X71275000Y-44644300D01*
%TO.C,R32*%
X82245276Y-38522500D02*
X82754724Y-38522500D01*
X82245276Y-37477500D02*
X82754724Y-37477500D01*
%TO.C,R21*%
X82245276Y-67412500D02*
X82754724Y-67412500D01*
X82245276Y-66367500D02*
X82754724Y-66367500D01*
%TO.C,R22*%
X86267776Y-68736800D02*
X86777224Y-68736800D01*
X86267776Y-67691800D02*
X86777224Y-67691800D01*
%TO.C,D14*%
X75075000Y-78010900D02*
X75075000Y-76310900D01*
X75075000Y-78010900D02*
X71925000Y-78010900D01*
X75075000Y-76310900D02*
X71925000Y-76310900D01*
%TO.C,JP1*%
X101650000Y-40350000D02*
X101350000Y-40650000D01*
X101350000Y-40650000D02*
X101950000Y-40650000D01*
X105000000Y-40150000D02*
X100900000Y-40150000D01*
X100900000Y-38150000D02*
X105000000Y-38150000D01*
X105000000Y-38150000D02*
X105000000Y-40150000D01*
X100900000Y-40150000D02*
X100900000Y-38150000D01*
X101650000Y-40350000D02*
X101950000Y-40650000D01*
%TO.C,R31*%
X82245276Y-79197500D02*
X82754724Y-79197500D01*
X82245276Y-80242500D02*
X82754724Y-80242500D01*
%TO.C,JP2*%
X115530000Y-80980000D02*
X116930000Y-80980000D01*
X114830000Y-82280000D02*
X114830000Y-81680000D01*
X116930000Y-82980000D02*
X115530000Y-82980000D01*
X117630000Y-81680000D02*
X117630000Y-82280000D01*
X116930000Y-82980000D02*
G75*
G03*
X117630000Y-82280000I1J699999D01*
G01*
X114830000Y-82280000D02*
G75*
G03*
X115530000Y-82980000I699999J-1D01*
G01*
X117630000Y-81680000D02*
G75*
G03*
X116930000Y-80980000I-699999J1D01*
G01*
X115530000Y-80980000D02*
G75*
G03*
X114830000Y-81680000I-1J-699999D01*
G01*
%TO.C,D4*%
X79900000Y-51064300D02*
X79900000Y-49364300D01*
X79900000Y-51064300D02*
X76750000Y-51064300D01*
X79900000Y-49364300D02*
X76750000Y-49364300D01*
%TO.C,D27*%
X75075000Y-70310900D02*
X71925000Y-70310900D01*
X75075000Y-68610900D02*
X71925000Y-68610900D01*
X75075000Y-70310900D02*
X75075000Y-68610900D01*
%TO.C,D2*%
X79900000Y-45921400D02*
X76750000Y-45921400D01*
X79900000Y-44221400D02*
X76750000Y-44221400D01*
X79900000Y-45921400D02*
X79900000Y-44221400D01*
%TO.C,R25*%
X82245276Y-72544500D02*
X82754724Y-72544500D01*
X82245276Y-71499500D02*
X82754724Y-71499500D01*
%TO.C,D21*%
X71275000Y-53210900D02*
X74425000Y-53210900D01*
X71275000Y-54910900D02*
X74425000Y-54910900D01*
X71275000Y-53210900D02*
X71275000Y-54910900D01*
%TO.C,D12*%
X79900000Y-71635700D02*
X76750000Y-71635700D01*
X79900000Y-71635700D02*
X79900000Y-69935700D01*
X79900000Y-69935700D02*
X76750000Y-69935700D01*
%TO.C,R16*%
X86267776Y-59977500D02*
X86777224Y-59977500D01*
X86267776Y-61022500D02*
X86777224Y-61022500D01*
%TO.C,R24*%
X86267776Y-71308200D02*
X86777224Y-71308200D01*
X86267776Y-70263200D02*
X86777224Y-70263200D01*
%TO.C,R4*%
X86267776Y-44548900D02*
X86777224Y-44548900D01*
X86267776Y-45593900D02*
X86777224Y-45593900D01*
%TO.C,R29*%
X82245276Y-76631500D02*
X82754724Y-76631500D01*
X82245276Y-77676500D02*
X82754724Y-77676500D01*
%TO.C,D19*%
X75075000Y-49777600D02*
X75075000Y-48077600D01*
X75075000Y-48077600D02*
X71925000Y-48077600D01*
X75075000Y-49777600D02*
X71925000Y-49777600D01*
%TO.C,R11*%
X82245276Y-53537500D02*
X82754724Y-53537500D01*
X82245276Y-54582500D02*
X82754724Y-54582500D01*
%TO.C,R36*%
X116322500Y-47142224D02*
X116322500Y-46632776D01*
X115277500Y-47142224D02*
X115277500Y-46632776D01*
%TO.C,R26*%
X86267776Y-72834600D02*
X86777224Y-72834600D01*
X86267776Y-73879600D02*
X86777224Y-73879600D01*
%TO.C,D16*%
X75075000Y-42077600D02*
X75075000Y-40377600D01*
X75075000Y-40377600D02*
X71925000Y-40377600D01*
X75075000Y-42077600D02*
X71925000Y-42077600D01*
%TO.C,R17*%
X82245276Y-61235500D02*
X82754724Y-61235500D01*
X82245276Y-62280500D02*
X82754724Y-62280500D01*
%TO.C,R13*%
X82245276Y-57148500D02*
X82754724Y-57148500D01*
X82245276Y-56103500D02*
X82754724Y-56103500D01*
%TO.C,R37*%
X118522500Y-47142224D02*
X118522500Y-46632776D01*
X117477500Y-47142224D02*
X117477500Y-46632776D01*
%TO.C,D5*%
X76100000Y-53635700D02*
X79250000Y-53635700D01*
X76100000Y-51935700D02*
X76100000Y-53635700D01*
X76100000Y-51935700D02*
X79250000Y-51935700D01*
%TO.C,R3*%
X82245276Y-43273500D02*
X82754724Y-43273500D01*
X82245276Y-44318500D02*
X82754724Y-44318500D01*
%TO.C,D23*%
X75075000Y-58344300D02*
X71925000Y-58344300D01*
X75075000Y-60044300D02*
X71925000Y-60044300D01*
X75075000Y-60044300D02*
X75075000Y-58344300D01*
%TO.C,R18*%
X86267776Y-63593900D02*
X86777224Y-63593900D01*
X86267776Y-62548900D02*
X86777224Y-62548900D01*
%TO.C,D13*%
X76100000Y-74207100D02*
X79250000Y-74207100D01*
X76100000Y-72507100D02*
X76100000Y-74207100D01*
X76100000Y-72507100D02*
X79250000Y-72507100D01*
%TO.C,D31*%
X79900000Y-77650000D02*
X76750000Y-77650000D01*
X79900000Y-79350000D02*
X76750000Y-79350000D01*
X79900000Y-79350000D02*
X79900000Y-77650000D01*
%TO.C,R34*%
X73245276Y-38522500D02*
X73754724Y-38522500D01*
X73245276Y-37477500D02*
X73754724Y-37477500D01*
%TO.C,D3*%
X79900000Y-48492900D02*
X79900000Y-46792900D01*
X79900000Y-48492900D02*
X76750000Y-48492900D01*
X79900000Y-46792900D02*
X76750000Y-46792900D01*
%TO.C,D9*%
X79900000Y-63921400D02*
X79900000Y-62221400D01*
X79900000Y-62221400D02*
X76750000Y-62221400D01*
X79900000Y-63921400D02*
X76750000Y-63921400D01*
%TO.C,D32*%
X92050000Y-38840000D02*
X92050000Y-37140000D01*
X92050000Y-38840000D02*
X88900000Y-38840000D01*
X92050000Y-37140000D02*
X88900000Y-37140000D01*
%TO.C,R14*%
X86267776Y-58451100D02*
X86777224Y-58451100D01*
X86267776Y-57406100D02*
X86777224Y-57406100D01*
%TO.C,R9*%
X82245276Y-50971500D02*
X82754724Y-50971500D01*
X82245276Y-52016500D02*
X82754724Y-52016500D01*
%TO.C,R12*%
X86267776Y-54834600D02*
X86777224Y-54834600D01*
X86267776Y-55879600D02*
X86777224Y-55879600D01*
%TO.C,R20*%
X86267776Y-65120400D02*
X86777224Y-65120400D01*
X86267776Y-66165400D02*
X86777224Y-66165400D01*
%TO.C,R33*%
X77745276Y-38522500D02*
X78254724Y-38522500D01*
X77745276Y-37477500D02*
X78254724Y-37477500D01*
%TO.C,D15*%
X75075000Y-80577600D02*
X75075000Y-78877600D01*
X75075000Y-80577600D02*
X71925000Y-80577600D01*
X75075000Y-78877600D02*
X71925000Y-78877600D01*
%TO.C,D11*%
X79900000Y-67364300D02*
X76750000Y-67364300D01*
X79900000Y-69064300D02*
X76750000Y-69064300D01*
X79900000Y-69064300D02*
X79900000Y-67364300D01*
%TO.C,R10*%
X86267776Y-53308200D02*
X86777224Y-53308200D01*
X86267776Y-52263200D02*
X86777224Y-52263200D01*
%TO.C,R8*%
X86267776Y-50736800D02*
X86777224Y-50736800D01*
X86267776Y-49691800D02*
X86777224Y-49691800D01*
%TD*%
M02*
